<svg width="335" height="180" fill="none" xmlns="http://www.w3.org/2000/svg"><rect width="335" height="180" rx="15" fill="url(#a)"/><path d="M40.478 44.588c1.005.381 1.785.962 2.34 1.742.555.78.832 1.699.832 2.756 0 1.525-.572 2.782-1.716 3.77-1.127.97-2.652 1.456-4.576 1.456-1.733 0-3.12-.39-4.16-1.17-1.04-.78-1.76-1.76-2.158-2.938l1.56-.884c.225.919.71 1.699 1.456 2.34.763.624 1.863.936 3.302.936 1.421 0 2.522-.32 3.302-.962.78-.659 1.17-1.508 1.17-2.548s-.364-1.88-1.092-2.522c-.71-.659-1.699-.988-2.964-.988h-2.08V43.86h1.43c1.23 0 2.21-.312 2.938-.936.728-.624 1.092-1.43 1.092-2.418 0-.97-.355-1.76-1.066-2.366-.693-.624-1.647-.936-2.86-.936-2.236 0-3.71.953-4.42 2.86L31.3 39.18a5.899 5.899 0 0 1 2.132-2.678c.988-.676 2.253-1.014 3.796-1.014 1.716 0 3.103.485 4.16 1.456 1.057.953 1.586 2.15 1.586 3.588 0 1.82-.832 3.172-2.496 4.056ZM58.898 54l-1.69-4.472h-8.633L46.885 54h-1.924l6.994-18.2h1.872L60.821 54h-1.924Zm-9.673-6.188h7.332l-3.666-9.75-3.666 9.75ZM75.898 54h-2.392l-8.528-8.814V54h-1.82V35.8h1.82v8.32l8.268-8.32h2.392l-8.736 8.84L75.898 54Zm14.712 0-1.69-4.472h-8.632L78.598 54h-1.924l6.994-18.2h1.872L92.534 54H90.61Zm-9.672-6.188h7.332l-3.666-9.75-3.666 9.75Zm22.331-3.224c1.005.381 1.785.962 2.34 1.742.555.78.832 1.699.832 2.756 0 1.525-.572 2.782-1.716 3.77-1.127.97-2.652 1.456-4.576 1.456-1.733 0-3.12-.39-4.16-1.17-1.04-.78-1.76-1.76-2.158-2.938l1.56-.884c.225.919.71 1.699 1.456 2.34.763.624 1.863.936 3.302.936 1.421 0 2.522-.32 3.302-.962.78-.659 1.17-1.508 1.17-2.548s-.364-1.88-1.092-2.522c-.711-.659-1.699-.988-2.964-.988h-2.08V43.86h1.43c1.231 0 2.21-.312 2.938-.936.728-.624 1.092-1.43 1.092-2.418 0-.97-.355-1.76-1.066-2.366-.693-.624-1.647-.936-2.86-.936-2.236 0-3.71.953-4.42 2.86l-1.508-.884a5.899 5.899 0 0 1 2.132-2.678c.988-.676 2.253-1.014 3.796-1.014 1.716 0 3.103.485 4.16 1.456 1.057.953 1.586 2.15 1.586 3.588 0 1.82-.832 3.172-2.496 4.056ZM121.688 54l-1.69-4.472h-8.632L109.676 54h-1.924l6.994-18.2h1.872l6.994 18.2h-1.924Zm-9.672-6.188h7.332l-3.666-9.75-3.666 9.75ZM136.094 35.8v1.716h-5.59V54h-1.82V37.516h-5.59V35.8h13Zm9.101 6.76c1.63 0 2.99.546 4.082 1.638 1.092 1.092 1.638 2.453 1.638 4.082 0 1.63-.546 2.99-1.638 4.082-1.092 1.092-2.452 1.638-4.082 1.638h-6.5V35.8h1.82v6.76h4.68Zm0 9.724c1.127 0 2.054-.373 2.782-1.118.746-.763 1.118-1.725 1.118-2.886s-.372-2.115-1.118-2.86c-.728-.763-1.655-1.144-2.782-1.144h-4.68v8.008h4.68ZM44.196 84l-1.69-4.472h-8.632L32.184 84H30.26l6.994-18.2h1.872L46.12 84h-1.924Zm-9.672-6.188h7.332l-3.666-9.75-3.666 9.75Zm24.021-3.25a4.718 4.718 0 0 1 2.106 1.742c.537.763.806 1.638.806 2.626 0 1.404-.494 2.6-1.482 3.588S57.791 84 56.387 84h-7.93V65.8h7.332c1.352 0 2.505.485 3.458 1.456.953.953 1.43 2.097 1.43 3.432 0 1.699-.71 2.99-2.132 3.874Zm-2.756-7.046h-5.512v6.344h5.512c.85 0 1.569-.303 2.158-.91.607-.624.91-1.378.91-2.262 0-.867-.303-1.612-.91-2.236-.59-.624-1.309-.936-2.158-.936Zm.598 14.768a3.07 3.07 0 0 0 2.288-.962c.641-.659.962-1.456.962-2.392 0-.919-.32-1.707-.962-2.366-.624-.659-1.387-.988-2.288-.988h-6.11v6.708h6.11ZM75.512 65.8v1.716h-5.59V84h-1.82V67.516h-5.59V65.8h13Zm16.614 15.782c-1.82 1.82-4.047 2.73-6.682 2.73-2.635 0-4.862-.91-6.682-2.73-1.82-1.837-2.73-4.065-2.73-6.682s.91-4.836 2.73-6.656c1.82-1.837 4.047-2.756 6.682-2.756 2.635 0 4.862.919 6.682 2.756 1.82 1.82 2.73 4.039 2.73 6.656s-.91 4.845-2.73 6.682Zm-12.09-1.248c1.456 1.473 3.259 2.21 5.408 2.21 2.15 0 3.952-.737 5.408-2.21 1.456-1.49 2.184-3.302 2.184-5.434s-.728-3.935-2.184-5.408c-1.456-1.49-3.258-2.236-5.408-2.236-2.15 0-3.952.745-5.408 2.236-1.456 1.473-2.184 3.276-2.184 5.408 0 2.132.728 3.943 2.184 5.434Z" fill="#fff"/><path d="m274 114-5 5 23.315 23.5H267v7.5l38 .104V112h-7.5v25.5L274 114Z" stroke="#fff" stroke-width="2"/><defs><linearGradient id="a" x1="4.5" y1="5.5" x2="335" y2="175.5" gradientUnits="userSpaceOnUse"><stop stop-color="#7F1BFF"/><stop offset="1" stop-color="#9209FF"/></linearGradient></defs></svg>