<svg width="180" height="65" fill="none" xmlns="http://www.w3.org/2000/svg"><rect x=".5" y=".5" width="179" height="64" rx="4.5" stroke="#7F1BFF"/><circle cx="48.674" cy="22.776" r="6.431" stroke="url(#a)" stroke-width="2.094" stroke-linecap="round"/><path d="M48.661 35.04c2.318 0 4.142.564 5.471 1.694 1.346 1.115 2.02 2.732 2.02 4.85v7.513a.897.897 0 0 1-.898.897h-.071a.897.897 0 0 1-.898-.897V46.23a.598.598 0 0 0-.598-.598H43.635a.598.598 0 0 0-.598.598v2.868a.897.897 0 0 1-.897.897h-.046a.897.897 0 0 1-.898-.897v-7.512c0-2.119.665-3.736 1.994-4.851 1.347-1.13 3.17-1.695 5.471-1.695Zm5.026 9.235c.33 0 .598-.268.598-.598v-2.24c0-1.653-.494-2.896-1.482-3.729-.989-.847-2.37-1.27-4.142-1.27-1.772 0-3.153.423-4.141 1.27-.989.833-1.483 2.076-1.483 3.728v2.24c0 .331.268.599.598.599h10.052ZM31.284 29.955c-1.461 0-2.876-.167-4.245-.501-.918-.237-1.704-.653-2.357-1.066-.463-.293-.555-.926-.221-1.36.232-.303.66-.37.995-.187.634.344 1.383.638 2.249.88a14.02 14.02 0 0 0 3.58.459c1.609 0 2.81-.202 3.606-.606.796-.418 1.193-.968 1.193-1.65 0-.501-.222-.905-.666-1.211-.425-.32-.962-.564-1.609-.732-.629-.167-1.526-.355-2.691-.563-1.462-.265-2.645-.53-3.552-.794-.888-.265-1.655-.668-2.303-1.212-.629-.557-.943-1.302-.943-2.235 0-.78.268-1.482.805-2.11.554-.626 1.387-1.127 2.497-1.503 1.11-.376 2.488-.564 4.134-.564 1.147 0 2.275.111 3.385.334.688.138 1.316.314 1.883.527.556.209.764.859.5 1.391-.198.403-.683.568-1.103.407a12.96 12.96 0 0 0-1.946-.57 12.325 12.325 0 0 0-2.72-.314c-1.571 0-2.755.216-3.55.648-.778.432-1.166.989-1.166 1.67 0 .502.222.913.666 1.233.444.307.99.55 1.637.731.666.167 1.563.348 2.691.543 1.462.265 2.636.53 3.524.794.888.265 1.646.669 2.275 1.212.648.543.971 1.274.971 2.193 0 .766-.277 1.469-.832 2.11-.555.626-1.396 1.127-2.525 1.503-1.128.362-2.515.543-4.162.543Z" fill="#fff"/><rect width="2.099" height="15.77" rx="1.049" transform="matrix(.92675 .37568 -.43929 .89835 36.858 35.043)" fill="#823AF0"/><g filter="url(#b)"><rect width="2.099" height="15.77" rx="1.049" transform="matrix(.92675 -.37568 .43929 .89835 23.848 35.834)" fill="url(#c)"/></g><path d="M81.035 29.144c-1.28 0-2.332-.42-3.156-1.26-.832-.848-1.248-1.876-1.248-3.084 0-1.208.416-2.236 1.248-3.084.824-.84 1.876-1.26 3.156-1.26.768 0 1.476.188 2.124.564a3.948 3.948 0 0 1 1.512 1.5l-.744.432a2.983 2.983 0 0 0-1.176-1.224 3.339 3.339 0 0 0-1.716-.456c-1.056 0-1.912.34-2.568 1.02-.664.688-.996 1.524-.996 2.508s.332 1.82.996 2.508c.656.68 1.512 1.02 2.568 1.02.624 0 1.196-.152 1.716-.456.52-.304.912-.712 1.176-1.224l.744.42a3.838 3.838 0 0 1-1.5 1.512 4.222 4.222 0 0 1-2.136.564Zm10-4.968V23h.791v6h-.792v-1.176c-.552.88-1.36 1.32-2.424 1.32a2.993 2.993 0 0 1-2.196-.912c-.6-.608-.9-1.352-.9-2.232 0-.88.3-1.624.9-2.232a2.993 2.993 0 0 1 2.196-.912c1.064 0 1.872.44 2.424 1.32Zm-4.045 3.516c.456.456 1.016.684 1.68.684.664 0 1.224-.228 1.68-.684A2.35 2.35 0 0 0 91.034 26c0-.664-.228-1.224-.684-1.68a2.264 2.264 0 0 0-1.68-.696c-.664 0-1.224.232-1.68.696-.456.456-.684 1.016-.684 1.68 0 .656.228 1.22.684 1.692Zm10.593-5.652h-3.12v-.696h3.12v.696Zm-3.288 5.58L97.871 23h.672v6h-.792v-4.62L94.175 29h-.672v-6h.792v4.62ZM99.498 23h5.04v.768h-2.124V29h-.792v-5.232h-2.124V23Zm12.101 2.916c.696.264 1.044.744 1.044 1.44 0 .504-.196.928-.588 1.272-.376.344-.928.516-1.656.516-1.216 0-2.008-.48-2.376-1.44l.672-.396c.256.712.824 1.068 1.704 1.068.456 0 .812-.096 1.068-.288.256-.2.384-.46.384-.78a.833.833 0 0 0-.312-.684c-.208-.176-.488-.264-.84-.264h-.876v-.768h.636c.344 0 .612-.084.804-.252.2-.176.3-.416.3-.72a.854.854 0 0 0-.36-.708c-.232-.192-.54-.288-.924-.288-.744 0-1.244.3-1.5.9l-.66-.384c.4-.856 1.12-1.284 2.16-1.284.64 0 1.144.168 1.512.504.376.328.564.732.564 1.212 0 .616-.252 1.064-.756 1.344Zm7.408-1.74V23h.792v6h-.792v-1.176c-.552.88-1.36 1.32-2.424 1.32a2.993 2.993 0 0 1-2.196-.912c-.6-.608-.9-1.352-.9-2.232 0-.88.3-1.624.9-2.232a2.993 2.993 0 0 1 2.196-.912c1.064 0 1.872.44 2.424 1.32Zm-4.044 3.516c.456.456 1.016.684 1.68.684.664 0 1.224-.228 1.68-.684a2.35 2.35 0 0 0 .684-1.692c0-.664-.228-1.224-.684-1.68a2.264 2.264 0 0 0-1.68-.696c-.664 0-1.224.232-1.68.696-.456.456-.684 1.016-.684 1.68 0 .656.228 1.22.684 1.692ZM121.476 23h5.04v6h-.792v-5.232h-3.456V29h-.792v-6Zm9.091 5.028L132.511 23h.84l-2.568 6.552c-.24.608-.576 1.076-1.008 1.404a1.967 1.967 0 0 1-1.416.444v-.744c.72.088 1.268-.328 1.644-1.248l.156-.372L127.471 23h.84l2.256 5.028Zm6.302 1.116c-.904 0-1.656-.3-2.256-.9-.6-.616-.9-1.364-.9-2.244 0-.888.3-1.632.9-2.232.6-.608 1.352-.912 2.256-.912.592 0 1.124.144 1.596.432.472.28.816.66 1.032 1.14l-.648.372c-.16-.36-.42-.644-.78-.852a2.248 2.248 0 0 0-1.2-.324c-.664 0-1.224.232-1.68.696-.456.456-.684 1.016-.684 1.68 0 .656.228 1.22.684 1.692.456.456 1.016.684 1.68.684.44 0 .836-.104 1.188-.312.36-.208.64-.496.84-.864l.66.384c-.248.48-.612.86-1.092 1.14a3.11 3.11 0 0 1-1.596.42ZM139.857 23h5.04v.768h-2.124V29h-.792v-5.232h-2.124V23Zm6.797 4.62L150.23 23h.672v6h-.792v-4.62L146.534 29h-.672v-6h.792v4.62Zm6.547-4.62h4.296v6h-.792v-5.232h-2.712v2.676c0 1-.192 1.688-.576 2.064-.376.376-.896.54-1.56.492v-.744c.464.048.804-.064 1.02-.336.216-.272.324-.764.324-1.476V23ZM80.999 35.656c.848 0 1.6.208 2.256.624.64.4 1.124.908 1.452 1.524.328.608.492 1.26.492 1.956 0 .856-.172 1.492-.516 1.908-.352.424-.756.636-1.212.636-.344 0-.636-.088-.876-.264-.232-.176-.388-.432-.468-.768-.352.432-.796.648-1.332.648-.56 0-1.024-.184-1.392-.552-.368-.368-.552-.824-.552-1.368 0-.544.184-1 .552-1.368.368-.368.832-.552 1.392-.552.512 0 .936.192 1.272.576v-.492h.744v2.592c0 .768.26 1.152.78 1.152.376 0 .676-.18.9-.54.232-.36.348-.896.348-1.608 0-1.072-.372-1.968-1.116-2.688-.728-.72-1.636-1.08-2.724-1.08-1.12 0-2.068.384-2.844 1.152-.776.768-1.164 1.72-1.164 2.856 0 1.168.4 2.128 1.2 2.88.8.752 1.808 1.128 3.024 1.128.792 0 1.488-.116 2.088-.348v.36c-.6.216-1.296.324-2.088.324-1.312 0-2.404-.412-3.276-1.236-.872-.816-1.308-1.852-1.308-3.108 0-1.2.416-2.224 1.248-3.072.84-.848 1.88-1.272 3.12-1.272Zm-1.044 5.22c.256.216.552.324.888.324.344 0 .632-.108.864-.324.24-.224.36-.516.36-.876s-.12-.648-.36-.864c-.224-.224-.512-.336-.864-.336-.344 0-.64.112-.888.336-.24.216-.36.504-.36.864 0 .352.12.644.36.876Zm9.336-4.02c.896 0 1.612.316 2.148.948.552.624.828 1.364.828 2.22 0 .04-.008.164-.024.372h-5.268c.08.6.336 1.08.768 1.44.432.36.972.54 1.62.54.912 0 1.556-.34 1.932-1.02l.696.408a2.797 2.797 0 0 1-1.092 1.02c-.456.24-.972.36-1.548.36-.944 0-1.712-.296-2.304-.888-.592-.592-.888-1.344-.888-2.256 0-.904.292-1.652.876-2.244.584-.6 1.336-.9 2.256-.9Zm0 .768c-.624 0-1.148.184-1.572.552-.416.368-.664.852-.744 1.452h4.476c-.088-.64-.332-1.132-.732-1.476a2.148 2.148 0 0 0-1.428-.528Zm9.395.552V37h.792v5.76c0 .864-.295 1.544-.887 2.04-.592.496-1.3.744-2.124.744-1.4 0-2.349-.488-2.844-1.464l.695-.396c.36.728 1.076 1.092 2.148 1.092.689 0 1.229-.18 1.62-.54.4-.36.6-.852.6-1.476v-.936c-.552.88-1.36 1.32-2.424 1.32a2.993 2.993 0 0 1-2.195-.912c-.6-.608-.9-1.352-.9-2.232 0-.88.3-1.624.9-2.232a2.993 2.993 0 0 1 2.196-.912c1.063 0 1.871.44 2.423 1.32Zm-4.044 3.516c.457.456 1.017.684 1.68.684.665 0 1.224-.228 1.68-.684A2.35 2.35 0 0 0 98.686 40c0-.664-.228-1.224-.684-1.68a2.264 2.264 0 0 0-1.68-.696c-.663 0-1.224.232-1.68.696-.456.456-.683 1.016-.683 1.68 0 .656.227 1.22.683 1.692Zm11.541.552c-.616.6-1.36.9-2.232.9-.888 0-1.636-.3-2.244-.9-.608-.608-.912-1.356-.912-2.244 0-.888.304-1.632.912-2.232.608-.608 1.356-.912 2.244-.912.88 0 1.624.304 2.232.912.616.6.924 1.344.924 2.232 0 .88-.308 1.628-.924 2.244Zm-3.912-.552c.456.456 1.016.684 1.68.684.664 0 1.224-.228 1.68-.684a2.35 2.35 0 0 0 .684-1.692c0-.664-.228-1.224-.684-1.68a2.264 2.264 0 0 0-1.68-.696c-.664 0-1.224.232-1.68.696-.456.456-.684 1.016-.684 1.68 0 .656.228 1.22.684 1.692ZM109.225 37v.996c.368-.728 1-1.092 1.896-1.092v.768c-.576 0-1.036.168-1.38.504-.344.328-.516.824-.516 1.488V43h-.792v-6h.792Zm3.371 1.572c0 .464.412.804 1.236 1.02.232.056.384.096.456.12.072.016.212.06.42.132.216.064.364.12.444.168.088.048.208.124.36.228.152.096.26.196.324.3.064.096.124.224.18.384.056.152.084.316.084.492 0 .512-.204.928-.612 1.248-.392.32-.912.48-1.56.48-.56 0-1.044-.124-1.452-.372a2.105 2.105 0 0 1-.864-1.008l.672-.396c.112.312.312.56.6.744.296.176.644.264 1.044.264.408 0 .74-.08.996-.24.256-.16.384-.4.384-.72 0-.464-.412-.804-1.236-1.02a33.243 33.243 0 0 0-.456-.108 16.687 16.687 0 0 0-.432-.132 3.235 3.235 0 0 1-.444-.18c-.08-.048-.196-.12-.348-.216a1.199 1.199 0 0 1-.324-.3 2.165 2.165 0 0 1-.18-.384 1.515 1.515 0 0 1-.084-.504c0-.488.192-.896.576-1.224.4-.328.892-.492 1.476-.492.48 0 .904.108 1.272.324.376.216.652.516.828.9l-.66.384c-.224-.56-.704-.84-1.44-.84-.36 0-.66.084-.9.252-.24.168-.36.4-.36.696Zm9.677 3.672c-.616.6-1.36.9-2.232.9-.888 0-1.636-.3-2.244-.9-.608-.608-.912-1.356-.912-2.244 0-.888.304-1.632.912-2.232.608-.608 1.356-.912 2.244-.912.88 0 1.624.304 2.232.912.616.6.924 1.344.924 2.232 0 .88-.308 1.628-.924 2.244Zm-3.912-.552c.456.456 1.016.684 1.68.684.664 0 1.224-.228 1.68-.684a2.35 2.35 0 0 0 .684-1.692c0-.664-.228-1.224-.684-1.68a2.264 2.264 0 0 0-1.68-.696c-.664 0-1.224.232-1.68.696-.456.456-.684 1.016-.684 1.68 0 .656.228 1.22.684 1.692Zm8.147.48 2.1-5.172h.84l-2.46 6h-.96l-2.46-6h.84l2.1 5.172Zm8.823-3.996V37h.792v6h-.792v-1.176c-.552.88-1.36 1.32-2.424 1.32a2.993 2.993 0 0 1-2.196-.912c-.6-.608-.9-1.352-.9-2.232 0-.88.3-1.624.9-2.232a2.993 2.993 0 0 1 2.196-.912c1.064 0 1.872.44 2.424 1.32Zm-4.044 3.516c.456.456 1.016.684 1.68.684.664 0 1.224-.228 1.68-.684a2.35 2.35 0 0 0 .684-1.692c0-.664-.228-1.224-.684-1.68a2.264 2.264 0 0 0-1.68-.696c-.664 0-1.224.232-1.68.696-.456.456-.684 1.016-.684 1.68 0 .656.228 1.22.684 1.692Z" fill="#fff"/><defs><linearGradient id="a" x1="44.15" y1="17.024" x2="53.066" y2="29.247" gradientUnits="userSpaceOnUse"><stop stop-color="#C8A5FF"/><stop offset=".879" stop-color="#823AF0"/></linearGradient><linearGradient id="c" x1="1.049" y1="0" x2="1.049" y2="15.77" gradientUnits="userSpaceOnUse"><stop offset=".279" stop-color="#C8A5FF"/><stop offset=".878" stop-color="#823AF0"/></linearGradient><filter id="b" x="23.607" y="33.865" width="11.15" height="17.316" filterUnits="userSpaceOnUse" color-interpolation-filters="sRGB"><feFlood flood-opacity="0" result="BackgroundImageFix"/><feColorMatrix in="SourceAlpha" values="0 0 0 0 0 0 0 0 0 0 0 0 0 0 0 0 0 0 127 0" result="hardAlpha"/><feOffset dx=".897"/><feGaussianBlur stdDeviation=".748"/><feComposite in2="hardAlpha" operator="out"/><feColorMatrix values="0 0 0 0 0 0 0 0 0 0 0 0 0 0 0 0 0 0 0.25 0"/><feBlend in2="BackgroundImageFix" result="effect1_dropShadow_285_212"/><feBlend in="SourceGraphic" in2="effect1_dropShadow_285_212" result="shape"/></filter></defs></svg>