<svg width="295" height="158" viewBox="0 0 295 158" fill="none" xmlns="http://www.w3.org/2000/svg">
<path fill-rule="evenodd" clip-rule="evenodd" d="M0.749878 58.9187C9.81449 80.9685 32.9312 93.8302 56.2887 90.1428C55.5661 91.1195 54.9509 92.1801 54.4591 93.307L54.4472 93.3003C54.4253 93.3622 54.4039 93.4242 54.3824 93.4866C54.0368 94.3056 53.7568 95.1593 53.5483 96.0403C46.9869 117.471 51.016 139.936 62.9418 157.401V157.917H63.2977L63.2981 157.918H63.6885L63.6897 157.917H117.754C122.195 151.952 129.301 148.088 137.309 148.088C137.452 148.088 137.595 148.089 137.738 148.091V148.088H208.685V148.091C208.826 148.089 208.968 148.088 209.11 148.088C217.119 148.088 224.225 151.952 228.665 157.917H251.678L251.678 157.918H280.961C293.334 140.679 297.97 118.144 291.632 96.173C291.613 96.1067 291.594 96.0403 291.575 95.974C289.889 88.9801 283.678 83.7503 276.214 83.5568V83.5493C263.143 83.3916 251.226 78.4446 242.134 70.3817C235.477 62.3424 225.463 57.184 214.241 57.0553V57.0529H213.81H131.326H130.899V57.0553C121.264 57.165 112.52 60.9811 106.026 67.1452L105.98 67.0892C98.0872 75.4678 87.4627 81.2446 75.5297 82.9955C94.8498 70.9855 104.498 47.0914 97.5541 24.2988C96.1726 19.7637 94.2214 15.5587 91.8027 11.7386C91.8039 11.739 91.8047 11.7394 91.8055 11.7402C88.9753 7.26869 85.5052 3.32387 81.5584 -0.00683594L80.7981 0.547285L36.2556 14.118C50.9476 19.4567 63.0367 31.3991 67.9432 47.5037C71.7704 60.0659 70.5573 72.9629 65.4625 84.0204C63.2881 84.555 61.2861 85.5274 59.555 86.8391C51.1653 84.3723 43.4926 79.2231 37.9422 71.6115C30.2702 61.0907 28.3171 48.1484 31.5016 36.4947L0.749878 58.9187Z" fill="#7F1BFF"/>
<path fill-rule="evenodd" clip-rule="evenodd" d="M211.492 122.611C215.224 129.179 222.282 133.609 230.376 133.609C242.361 133.609 252.079 123.892 252.079 111.905C252.079 109.237 251.597 106.681 250.717 104.32L211.492 122.611ZM92.7104 105.925L131.572 124.046C127.671 129.816 121.068 133.609 113.579 133.609C101.593 133.609 91.8758 123.892 91.8758 111.905C91.8758 109.831 92.167 107.825 92.7104 105.925Z" fill="white"/>
</svg>
