<svg width="416" height="117" viewBox="0 0 416 117" fill="none" xmlns="http://www.w3.org/2000/svg">
<path fill-rule="evenodd" clip-rule="evenodd" d="M0 41.9501C6.45311 57.6476 22.9102 66.804 39.5378 64.18C39.0241 64.8748 38.5864 65.6292 38.2373 66.4304L38.2274 66.4251C38.2096 66.4754 38.1924 66.5256 38.1752 66.5759C37.9352 67.1477 37.7395 67.7427 37.5934 68.3569C32.9141 83.62 35.7813 99.6222 44.2753 112.061V112.428H83.298C86.4588 108.181 91.5176 105.43 97.219 105.43C97.3208 105.43 97.422 105.431 97.5231 105.433V105.43H148.033V105.433C148.092 105.431 148.152 105.431 148.213 105.431C148.254 105.43 148.295 105.43 148.337 105.43C154.038 105.43 159.097 108.181 162.258 112.428H198.845L199.489 112.427C208.298 100.155 211.598 84.1118 207.086 68.4706C207.073 68.4263 207.06 68.382 207.047 68.3384C205.851 63.3543 201.427 59.6263 196.109 59.4888V59.4821C186.806 59.3704 178.323 55.85 171.851 50.1122C167.111 44.3863 159.98 40.7125 151.987 40.622V40.62H151.683H92.9588H92.6547V40.622C85.7964 40.7 79.5713 43.4165 74.9482 47.8043L74.9145 47.7639C69.2963 53.7278 61.7346 57.84 53.2413 59.0875C66.9937 50.5367 73.8613 33.5276 68.9182 17.3019C66.8106 10.3847 62.8419 4.54646 57.7276 0.167921C57.6615 0.111726 57.596 0.0555333 57.5299 0L56.9918 0.39203L25.2789 10.0535C35.7377 13.8549 44.3447 22.3568 47.8373 33.8218C50.5624 42.7653 49.699 51.9468 46.0715 59.8186C44.5225 60.1994 43.0959 60.8923 41.8629 61.8271C35.8911 60.0705 30.429 56.4053 26.4782 50.9869C21.0161 43.4971 19.6257 34.2826 21.8927 25.9863L0 41.9501Z" fill="#7F1BFF"/>
<path fill-rule="evenodd" clip-rule="evenodd" d="M150.032 87.2934C152.688 91.9688 157.713 95.1229 163.476 95.1229C172.009 95.1229 178.926 88.205 178.926 79.6714C178.926 77.772 178.583 75.9527 177.957 74.2715L150.032 87.2934ZM65.4685 75.4139L93.1347 88.3148C90.358 92.4223 85.6569 95.1229 80.3257 95.1229C71.7921 95.1229 64.8742 88.205 64.8742 79.6714C64.8742 78.1945 65.0818 76.7665 65.4685 75.4139Z" fill="white"/>
<path d="M257.077 65.663L257.613 59.902H273.11L273.602 65.663H257.077ZM265.25 51.9079L260.873 62.0011L261.231 63.6532L257.345 71.6923H248.815L265.25 38.4648L281.73 71.6923H273.155L269.403 63.9659L269.671 62.0454L265.25 51.9079ZM288.936 60.9737H296.26C297.689 60.9737 298.97 61.1225 300.101 61.4206C301.232 61.7181 302.126 62.2391 302.78 62.9835C303.435 63.7279 303.763 64.7698 303.763 66.1099C303.763 67.6582 303.242 68.9831 302.2 70.0845C301.188 71.1561 299.505 71.6923 297.154 71.6923H288.936V67.4493H294.875C295.828 67.4493 296.483 67.241 296.841 66.8245C297.228 66.3776 297.421 65.9016 297.421 65.3952C297.421 65.1274 297.376 64.8743 297.287 64.6363C297.198 64.3976 297.049 64.1893 296.841 64.0108C296.662 63.8323 296.409 63.6829 296.081 63.5639C295.754 63.4449 295.352 63.3854 294.875 63.3854H288.936V60.9737ZM288.936 61.8669V59.2323H294.429C294.786 59.2323 295.084 59.1874 295.322 59.0981C295.59 58.9791 295.813 58.8304 295.992 58.6512C296.17 58.4727 296.305 58.2645 296.394 58.0265C296.483 57.7878 296.528 57.5498 296.528 57.3118C296.528 56.7756 296.35 56.3294 295.992 55.9717C295.635 55.585 295.114 55.3913 294.429 55.3913H288.936V51.1483H295.813C297.093 51.1483 298.255 51.342 299.297 51.7287C300.369 52.0864 301.232 52.6821 301.887 53.5157C302.542 54.3196 302.87 55.3913 302.87 56.7313C302.87 57.8923 302.542 58.8601 301.887 59.6336C301.232 60.378 300.369 60.944 299.297 61.3314C298.255 61.6884 297.093 61.8669 295.813 61.8669H288.936ZM285.05 51.1483H291.526V71.6923H285.05V51.1483ZM305.345 51.1483H319.77V56.7313H305.345V51.1483ZM309.319 52.0414H315.795V71.6923H309.319V52.0414ZM320.768 61.4206C320.768 59.2469 321.275 57.3561 322.287 55.7483C323.299 54.1405 324.699 52.8903 326.485 51.9971C328.271 51.104 330.281 50.6571 332.514 50.6571C334.747 50.6571 336.742 51.104 338.499 51.9971C340.285 52.8903 341.685 54.1405 342.697 55.7483C343.739 57.3561 344.26 59.2469 344.26 61.4206C344.26 63.5639 343.739 65.4395 342.697 67.0473C341.685 68.6551 340.285 69.906 338.499 70.7991C336.742 71.6923 334.747 72.1392 332.514 72.1392C330.281 72.1392 328.271 71.6923 326.485 70.7991C324.699 69.906 323.299 68.6551 322.287 67.0473C321.275 65.4395 320.768 63.5639 320.768 61.4206ZM327.691 61.4206C327.691 62.4923 327.914 63.4152 328.361 64.1893C328.808 64.9338 329.388 65.5142 330.103 65.9314C330.817 66.3479 331.621 66.5561 332.514 66.5561C333.378 66.5561 334.167 66.3479 334.881 65.9314C335.626 65.5142 336.206 64.9338 336.623 64.1893C337.069 63.4152 337.293 62.4923 337.293 61.4206C337.293 60.3483 337.069 59.4254 336.623 58.6512C336.206 57.877 335.626 57.282 334.881 56.8649C334.167 56.4484 333.378 56.2395 332.514 56.2395C331.621 56.2395 330.817 56.4484 330.103 56.8649C329.388 57.282 328.808 57.877 328.361 58.6512C327.914 59.4254 327.691 60.3483 327.691 61.4206Z" fill="white"/>
<path d="M254.263 99.4403V92.652H277.889V99.4403H254.263ZM273.155 81.2637H280.702V112.526H273.155V81.2637ZM252.164 81.2637H259.712V112.526H252.164V81.2637ZM307.415 97.7881L286.693 114.089L286.916 106.72L307.639 90.4194L307.415 97.7881ZM293.213 91.9823V107.792L286.693 114.089V91.9823H293.213ZM307.639 90.4194V112.526H301.163V96.7165L307.639 90.4194ZM315.132 104.219V99.1725H331.746V104.219H315.132ZM328.71 91.9823H335.185V112.526H328.71V91.9823ZM313.033 91.9823H319.554V112.526H313.033V91.9823ZM353.507 100.066L348.594 111.186L342.073 109.802L353.507 90.4194L364.939 109.802L358.419 111.186L353.507 100.066ZM361.01 112.526H346.227V116.545H339.662V107.256H367.351V116.545H361.01V112.526ZM381.512 102.254V100.244C382.465 100.244 383.15 100.066 383.567 99.7087C384.013 99.3213 384.236 98.8453 384.236 98.2794C384.236 97.7135 384.028 97.2672 383.611 96.9393C383.195 96.5823 382.643 96.4038 381.959 96.4038C381.453 96.4038 380.991 96.5076 380.574 96.7165C380.187 96.9247 379.89 97.2077 379.681 97.5647C379.473 97.9223 379.353 98.3389 379.324 98.8155H373.205C373.205 97.3564 373.563 96.0911 374.277 95.0194C375.021 93.9173 376.034 93.0691 377.314 92.4735C378.624 91.8481 380.157 91.5353 381.914 91.5353C383.552 91.5353 385.011 91.8038 386.291 92.3393C387.571 92.8457 388.569 93.5452 389.283 94.4383C390.027 95.3017 390.399 96.2993 390.399 97.4305C390.399 98.9491 389.67 100.17 388.211 101.093C386.782 101.986 384.549 102.373 381.512 102.254ZM381.825 112.973C378.907 112.973 376.599 112.303 374.902 110.963C373.235 109.594 372.282 107.777 372.044 105.515H378.431C378.669 106.378 379.071 107.048 379.636 107.524C380.202 107.971 380.916 108.194 381.78 108.194C382.435 108.194 383.001 108.105 383.477 107.926C383.954 107.717 384.326 107.45 384.593 107.122C384.862 106.765 384.995 106.333 384.995 105.827C384.995 105.321 384.862 104.904 384.593 104.576C384.355 104.219 383.969 103.951 383.433 103.773C382.926 103.564 382.286 103.46 381.512 103.46V100.915C384.638 100.766 387.05 101.212 388.747 102.254C390.444 103.267 391.292 104.695 391.292 106.541C391.292 107.822 390.876 108.953 390.042 109.936C389.238 110.889 388.122 111.633 386.692 112.169C385.264 112.705 383.641 112.973 381.825 112.973ZM402.106 112.526H395.14L401.347 103.192H407.734L402.106 112.526ZM415.817 112.526H409.074V91.9823H415.817V112.526ZM411.396 100.646V105.157H405.009C403.61 105.157 402.256 104.919 400.945 104.442C399.665 103.966 398.623 103.236 397.819 102.254C397.045 101.242 396.658 99.9619 396.658 98.4136C396.658 96.8355 397.045 95.5847 397.819 94.6617C398.623 93.7388 399.665 93.0691 400.945 92.652C402.256 92.2057 403.61 91.9823 405.009 91.9823H411.396V97.3413H405.947C405.381 97.3413 404.89 97.4007 404.474 97.5204C404.086 97.6097 403.789 97.7729 403.581 98.0116C403.372 98.2496 403.268 98.5769 403.268 98.994C403.268 99.3808 403.372 99.7087 403.581 99.9764C403.789 100.214 404.086 100.394 404.474 100.513C404.89 100.602 405.381 100.646 405.947 100.646H411.396Z" fill="white"/>
</svg>
