<svg width="225" height="42" viewBox="0 0 225 42" fill="none" xmlns="http://www.w3.org/2000/svg">
<rect width="225" height="42" rx="21" fill="white"/>
<path d="M31.6001 18.323C31.6001 19.2183 31.3564 20.0117 30.8691 20.703L26.9761 26.5H25.6331L28.5571 22.148C28.2511 22.216 27.9338 22.25 27.6051 22.25C26.4378 22.25 25.4801 21.8873 24.7321 21.162C23.9841 20.4253 23.6101 19.479 23.6101 18.323C23.6101 17.167 23.9841 16.2263 24.7321 15.501C25.4801 14.7643 26.4378 14.396 27.6051 14.396C28.7724 14.396 29.7301 14.7643 30.4781 15.501C31.2261 16.2263 31.6001 17.167 31.6001 18.323ZM25.5651 16.317C25.0551 16.827 24.8001 17.4957 24.8001 18.323C24.8001 19.1503 25.0551 19.819 25.5651 20.329C26.0864 20.839 26.7664 21.094 27.6051 21.094C28.4438 21.094 29.1181 20.839 29.6281 20.329C30.1494 19.819 30.4101 19.1503 30.4101 18.323C30.4101 17.4957 30.1494 16.827 29.6281 16.317C29.1181 15.807 28.4438 15.552 27.6051 15.552C26.7664 15.552 26.0864 15.807 25.5651 16.317ZM44.5247 18V26.5H43.4027V19.088H39.5607V22.879C39.5607 24.2957 39.2887 25.2703 38.7447 25.803C38.2121 26.3357 37.4754 26.568 36.5347 26.5V25.446C37.1807 25.514 37.6567 25.361 37.9627 24.987C38.2801 24.613 38.4387 23.9103 38.4387 22.879V18H44.5247ZM50.8284 17.796C52.0864 17.796 53.1008 18.2437 53.8714 19.139C54.6534 20.023 55.0444 21.0713 55.0444 22.284C55.0444 22.4087 55.0331 22.5843 55.0104 22.811H47.5474C47.6608 23.6723 48.0234 24.358 48.6354 24.868C49.2588 25.3667 50.0238 25.616 50.9304 25.616C51.5764 25.616 52.1318 25.4857 52.5964 25.225C53.0724 24.953 53.4294 24.6017 53.6674 24.171L54.6534 24.749C54.2794 25.3497 53.7694 25.8257 53.1234 26.177C52.4774 26.5283 51.7408 26.704 50.9134 26.704C49.5761 26.704 48.4881 26.2847 47.6494 25.446C46.8108 24.6073 46.3914 23.542 46.3914 22.25C46.3914 20.9807 46.8051 19.921 47.6324 19.071C48.4598 18.221 49.5251 17.796 50.8284 17.796ZM50.8284 18.884C49.9444 18.884 49.2021 19.1503 48.6014 19.683C48.0121 20.2043 47.6608 20.8843 47.5474 21.723H53.8884C53.7751 20.8277 53.4294 20.1307 52.8514 19.632C52.2734 19.1333 51.5991 18.884 50.8284 18.884ZM62.6171 18V19.088H59.6081V26.5H58.4861V19.088H55.4771V18H62.6171ZM73.6404 22.131C74.5698 22.471 75.0344 23.134 75.0344 24.12C75.0344 24.8113 74.8021 25.3837 74.3374 25.837C73.8841 26.279 73.2268 26.5 72.3654 26.5H68.2344V18H72.0254C72.8528 18 73.4931 18.2153 73.9464 18.646C74.3998 19.0653 74.6264 19.6093 74.6264 20.278C74.6264 21.128 74.2978 21.7457 73.6404 22.131ZM72.0254 19.088H69.3564V21.672H72.0254C73.0114 21.672 73.5044 21.23 73.5044 20.346C73.5044 19.9493 73.3741 19.6433 73.1134 19.428C72.8641 19.2013 72.5014 19.088 72.0254 19.088ZM72.3654 25.412C72.8641 25.412 73.2438 25.293 73.5044 25.055C73.7764 24.817 73.9124 24.4827 73.9124 24.052C73.9124 23.6553 73.7764 23.3437 73.5044 23.117C73.2438 22.879 72.8641 22.76 72.3654 22.76H69.3564V25.412H72.3654ZM84.9454 26.704C83.6648 26.704 82.5994 26.279 81.7494 25.429C80.8994 24.5677 80.4744 23.508 80.4744 22.25C80.4744 20.992 80.8994 19.938 81.7494 19.088C82.5994 18.2267 83.6648 17.796 84.9454 17.796C85.7841 17.796 86.5378 18 87.2064 18.408C87.8751 18.8047 88.3624 19.343 88.6684 20.023L87.7504 20.55C87.5238 20.04 87.1554 19.6377 86.6454 19.343C86.1468 19.037 85.5801 18.884 84.9454 18.884C84.0048 18.884 83.2114 19.2127 82.5654 19.87C81.9194 20.516 81.5964 21.3093 81.5964 22.25C81.5964 23.1907 81.9194 23.9897 82.5654 24.647C83.2114 25.293 84.0048 25.616 84.9454 25.616C85.5801 25.616 86.1468 25.4687 86.6454 25.174C87.1441 24.868 87.5351 24.46 87.8184 23.95L88.7534 24.494C88.4021 25.174 87.8864 25.7123 87.2064 26.109C86.5264 26.5057 85.7728 26.704 84.9454 26.704ZM98.5773 19.224C99.3933 20.0513 99.8013 21.06 99.8013 22.25C99.8013 23.44 99.3933 24.4487 98.5773 25.276C97.7613 26.1033 96.6846 26.5737 95.3473 26.687V29.9H94.2253V26.687C92.888 26.5737 91.8113 26.1033 90.9953 25.276C90.1793 24.4487 89.7713 23.44 89.7713 22.25C89.7713 21.06 90.1793 20.0513 90.9953 19.224C91.8113 18.3967 92.888 17.9263 94.2253 17.813V14.6H95.3473V17.813C96.6846 17.9263 97.7613 18.3967 98.5773 19.224ZM91.7943 20.006C91.1936 20.618 90.8933 21.366 90.8933 22.25C90.8933 23.134 91.1936 23.8877 91.7943 24.511C92.395 25.123 93.2053 25.48 94.2253 25.582V18.918C93.2053 19.02 92.395 19.3827 91.7943 20.006ZM95.3473 25.582C96.3673 25.48 97.1776 25.123 97.7783 24.511C98.379 23.8877 98.6793 23.134 98.6793 22.25C98.6793 21.366 98.379 20.618 97.7783 20.006C97.1776 19.3827 96.3673 19.02 95.3473 18.918V25.582ZM105.597 17.796C106.855 17.796 107.869 18.2437 108.64 19.139C109.422 20.023 109.813 21.0713 109.813 22.284C109.813 22.4087 109.802 22.5843 109.779 22.811H102.316C102.429 23.6723 102.792 24.358 103.404 24.868C104.027 25.3667 104.792 25.616 105.699 25.616C106.345 25.616 106.9 25.4857 107.365 25.225C107.841 24.953 108.198 24.6017 108.436 24.171L109.422 24.749C109.048 25.3497 108.538 25.8257 107.892 26.177C107.246 26.5283 106.509 26.704 105.682 26.704C104.345 26.704 103.257 26.2847 102.418 25.446C101.579 24.6073 101.16 23.542 101.16 22.25C101.16 20.9807 101.574 19.921 102.401 19.071C103.228 18.221 104.294 17.796 105.597 17.796ZM105.597 18.884C104.713 18.884 103.971 19.1503 103.37 19.683C102.781 20.2043 102.429 20.8843 102.316 21.723H108.657C108.544 20.8277 108.198 20.1307 107.62 19.632C107.042 19.1333 106.368 18.884 105.597 18.884ZM116.154 17.796C117.366 17.796 118.398 18.2267 119.248 19.088C120.109 19.9493 120.54 21.0033 120.54 22.25C120.54 23.4967 120.109 24.5507 119.248 25.412C118.398 26.2733 117.366 26.704 116.154 26.704C114.646 26.704 113.502 26.0807 112.72 24.834V29.9H111.598V18H112.72V19.666C113.502 18.4193 114.646 17.796 116.154 17.796ZM113.689 24.647C114.335 25.293 115.128 25.616 116.069 25.616C117.009 25.616 117.803 25.293 118.449 24.647C119.095 23.9897 119.418 23.1907 119.418 22.25C119.418 21.3093 119.095 20.516 118.449 19.87C117.803 19.2127 117.009 18.884 116.069 18.884C115.128 18.884 114.335 19.2127 113.689 19.87C113.043 20.516 112.72 21.3093 112.72 22.25C112.72 23.1907 113.043 23.9897 113.689 24.647ZM126.332 17.796C127.59 17.796 128.605 18.2437 129.375 19.139C130.157 20.023 130.548 21.0713 130.548 22.284C130.548 22.4087 130.537 22.5843 130.514 22.811H123.051C123.165 23.6723 123.527 24.358 124.139 24.868C124.763 25.3667 125.528 25.616 126.434 25.616C127.08 25.616 127.636 25.4857 128.1 25.225C128.576 24.953 128.933 24.6017 129.171 24.171L130.157 24.749C129.783 25.3497 129.273 25.8257 128.627 26.177C127.981 26.5283 127.245 26.704 126.417 26.704C125.08 26.704 123.992 26.2847 123.153 25.446C122.315 24.6073 121.895 23.542 121.895 22.25C121.895 20.9807 122.309 19.921 123.136 19.071C123.964 18.221 125.029 17.796 126.332 17.796ZM126.332 18.884C125.448 18.884 124.706 19.1503 124.105 19.683C123.516 20.2043 123.165 20.8843 123.051 21.723H129.392C129.279 20.8277 128.933 20.1307 128.355 19.632C127.777 19.1333 127.103 18.884 126.332 18.884ZM139.609 17.796C140.89 17.796 141.921 18.221 142.703 19.071C143.485 19.9097 143.876 20.9693 143.876 22.25C143.876 23.5307 143.479 24.596 142.686 25.446C141.904 26.2847 140.867 26.704 139.575 26.704C138.657 26.704 137.858 26.5057 137.178 26.109C136.509 25.701 136.028 25.1513 135.733 24.46L136.702 23.899C136.895 24.4203 137.24 24.8397 137.739 25.157C138.238 25.463 138.85 25.616 139.575 25.616C140.425 25.616 141.133 25.3553 141.7 24.834C142.267 24.3013 142.607 23.6213 142.72 22.794H138.487V21.706H142.72C142.618 20.8787 142.284 20.2043 141.717 19.683C141.162 19.1503 140.459 18.884 139.609 18.884C138.963 18.884 138.391 19.037 137.892 19.343C137.393 19.649 137.025 20.0627 136.787 20.584L135.801 20.023C136.141 19.3317 136.645 18.7877 137.314 18.391C137.994 17.9943 138.759 17.796 139.609 17.796ZM152.615 26.5H151.119L146.869 22.403V26.5H145.747V18H146.869V21.757L150.915 18H152.445L148.059 22.08L152.615 26.5ZM157.262 26.704C155.981 26.704 154.916 26.279 154.066 25.429C153.216 24.5677 152.791 23.508 152.791 22.25C152.791 20.992 153.216 19.938 154.066 19.088C154.916 18.2267 155.981 17.796 157.262 17.796C158.101 17.796 158.854 18 159.523 18.408C160.192 18.8047 160.679 19.343 160.985 20.023L160.067 20.55C159.84 20.04 159.472 19.6377 158.962 19.343C158.463 19.037 157.897 18.884 157.262 18.884C156.321 18.884 155.528 19.2127 154.882 19.87C154.236 20.516 153.913 21.3093 153.913 22.25C153.913 23.1907 154.236 23.9897 154.882 24.647C155.528 25.293 156.321 25.616 157.262 25.616C157.897 25.616 158.463 25.4687 158.962 25.174C159.461 24.868 159.852 24.46 160.135 23.95L161.07 24.494C160.719 25.174 160.203 25.7123 159.523 26.109C158.843 26.5057 158.089 26.704 157.262 26.704ZM169.821 18V26.5H168.699V19.088H163.803V26.5H162.681V18H169.821ZM179.316 25.429C178.455 26.279 177.401 26.704 176.154 26.704C174.908 26.704 173.848 26.279 172.975 25.429C172.114 24.5677 171.683 23.508 171.683 22.25C171.683 20.992 172.114 19.938 172.975 19.088C173.848 18.2267 174.908 17.796 176.154 17.796C177.401 17.796 178.455 18.2267 179.316 19.088C180.189 19.938 180.625 20.992 180.625 22.25C180.625 23.508 180.189 24.5677 179.316 25.429ZM173.774 24.647C174.42 25.293 175.214 25.616 176.154 25.616C177.095 25.616 177.888 25.293 178.534 24.647C179.18 23.9897 179.503 23.1907 179.503 22.25C179.503 21.3093 179.18 20.516 178.534 19.87C177.888 19.2127 177.095 18.884 176.154 18.884C175.214 18.884 174.42 19.2127 173.774 19.87C173.128 20.516 172.805 21.3093 172.805 22.25C172.805 23.1907 173.128 23.9897 173.774 24.647ZM187.059 17.796C188.272 17.796 189.303 18.2267 190.153 19.088C191.014 19.9493 191.445 21.0033 191.445 22.25C191.445 23.4967 191.014 24.5507 190.153 25.412C189.303 26.2733 188.272 26.704 187.059 26.704C185.552 26.704 184.407 26.0807 183.625 24.834V29.9H182.503V18H183.625V19.666C184.407 18.4193 185.552 17.796 187.059 17.796ZM184.594 24.647C185.24 25.293 186.033 25.616 186.974 25.616C187.915 25.616 188.708 25.293 189.354 24.647C190 23.9897 190.323 23.1907 190.323 22.25C190.323 21.3093 190 20.516 189.354 19.87C188.708 19.2127 187.915 18.884 186.974 18.884C186.033 18.884 185.24 19.2127 184.594 19.87C183.948 20.516 183.625 21.3093 183.625 22.25C183.625 23.1907 183.948 23.9897 184.594 24.647ZM199.099 18V19.088H196.09V26.5H194.968V19.088H191.959V18H199.099ZM207.444 18H208.566V26.5H207.444V24.834C206.662 26.0807 205.517 26.704 204.01 26.704C202.797 26.704 201.76 26.2733 200.899 25.412C200.049 24.5507 199.624 23.4967 199.624 22.25C199.624 21.0033 200.049 19.9493 200.899 19.088C201.76 18.2267 202.797 17.796 204.01 17.796C205.517 17.796 206.662 18.4193 207.444 19.666V18ZM201.715 24.647C202.361 25.293 203.154 25.616 204.095 25.616C205.036 25.616 205.829 25.293 206.475 24.647C207.121 23.9897 207.444 23.1907 207.444 22.25C207.444 21.3093 207.121 20.516 206.475 19.87C205.829 19.2127 205.036 18.884 204.095 18.884C203.154 18.884 202.361 19.2127 201.715 19.87C201.069 20.516 200.746 21.3093 200.746 22.25C200.746 23.1907 201.069 23.9897 201.715 24.647Z" fill="black"/>
</svg>
