<svg width="297" height="42" viewBox="0 0 297 42" fill="none" xmlns="http://www.w3.org/2000/svg">
<rect width="297" height="42" rx="21" fill="white"/>
<path d="M22.6051 13.4795H26.8542C27.9193 13.4795 28.8088 13.8364 29.5226 14.5503C30.2365 15.2641 30.5934 16.1536 30.5934 17.2187C30.5934 18.2838 30.2365 19.1733 29.5226 19.8871C28.8088 20.601 27.9193 20.9579 26.8542 20.9579H23.7949V25.377H22.6051V13.4795ZM23.7949 19.8361H26.8542C27.5907 19.8361 28.1969 19.5925 28.6728 19.1053C29.16 18.6181 29.4037 17.9892 29.4037 17.2187C29.4037 16.4595 29.16 15.8363 28.6728 15.3491C28.1969 14.8506 27.5907 14.6013 26.8542 14.6013H23.7949V19.8361ZM39.0883 18.5444V16.8788H40.21V25.377H39.0883V23.7113C38.3064 24.9577 37.162 25.5809 35.655 25.5809C34.4426 25.5809 33.4058 25.1503 32.5447 24.2892C31.6948 23.428 31.2699 22.3743 31.2699 21.1279C31.2699 19.8815 31.6948 18.8277 32.5447 17.9666C33.4058 17.1054 34.4426 16.6748 35.655 16.6748C37.162 16.6748 38.3064 17.298 39.0883 18.5444ZM33.3605 23.5244C34.0064 24.1702 34.7995 24.4931 35.74 24.4931C36.6804 24.4931 37.4736 24.1702 38.1195 23.5244C38.7653 22.8558 39.0883 22.057 39.0883 21.1279C39.0883 20.1874 38.7653 19.3942 38.1195 18.7484C37.4736 18.0912 36.6804 17.7626 35.74 17.7626C34.7995 17.7626 34.0064 18.0912 33.3605 18.7484C32.7146 19.3942 32.3917 20.1874 32.3917 21.1279C32.3917 22.057 32.7146 22.8558 33.3605 23.5244ZM46.3583 25.5809C45.1459 25.5809 44.1261 25.1787 43.299 24.3742C42.4831 23.5583 42.0752 22.5046 42.0752 21.2129C42.0752 19.7625 42.2905 18.6521 42.7211 17.8816C43.1517 17.0997 44.0241 16.3916 45.3385 15.757C45.7578 15.5644 46.0864 15.4171 46.3243 15.3151C46.7209 15.1565 47.0325 15.0205 47.2591 14.9072C48.2449 14.454 48.7435 13.8931 48.7548 13.2246L49.6386 13.7345C49.5819 14.0177 49.4913 14.2727 49.3667 14.4993C49.2194 14.7486 49.0721 14.9469 48.9248 15.0942C48.7888 15.2415 48.5735 15.4001 48.2789 15.5701C48.0863 15.6834 47.854 15.808 47.582 15.944L46.7322 16.3009L45.9334 16.6408C45.1516 16.9808 44.568 17.3377 44.1828 17.7116C43.8089 18.0742 43.5426 18.5501 43.3839 19.1393C43.7465 18.6521 44.2224 18.2838 44.8116 18.0345C45.4008 17.7739 45.9957 17.6436 46.5963 17.6436C47.7293 17.6436 48.6641 18.0175 49.4006 18.7654C50.1485 19.5019 50.5224 20.448 50.5224 21.6038C50.5224 22.7482 50.1258 23.7 49.3327 24.4592C48.5508 25.207 47.5594 25.5809 46.3583 25.5809ZM44.1488 23.6263C44.738 24.1815 45.4745 24.4592 46.3583 24.4592C47.2421 24.4592 47.9673 24.1929 48.5338 23.6603C49.1117 23.1164 49.4006 22.4309 49.4006 21.6038C49.4006 20.7653 49.1287 20.0798 48.5848 19.5472C48.0523 19.0033 47.3384 18.7314 46.4433 18.7314C45.6388 18.7314 44.908 18.9863 44.2508 19.4962C43.5936 19.9834 43.265 20.652 43.265 21.5018C43.265 22.3629 43.5596 23.0711 44.1488 23.6263ZM59.35 24.3062C58.4775 25.156 57.4238 25.5809 56.1887 25.5809C54.931 25.5809 53.8715 25.156 53.0104 24.3062C52.1492 23.445 51.7187 22.3856 51.7187 21.1279C51.7187 19.8701 52.1492 18.8164 53.0104 17.9666C53.8715 17.1054 54.931 16.6748 56.1887 16.6748C57.4351 16.6748 58.4889 17.1054 59.35 17.9666C60.2225 18.8164 60.6587 19.8701 60.6587 21.1279C60.6587 22.3743 60.2225 23.4337 59.35 24.3062ZM53.8092 23.5244C54.4551 24.1702 55.2482 24.4931 56.1887 24.4931C57.1292 24.4931 57.9223 24.1702 58.5682 23.5244C59.214 22.8558 59.537 22.057 59.537 21.1279C59.537 20.1874 59.214 19.3942 58.5682 18.7484C57.9223 18.0912 57.1292 17.7626 56.1887 17.7626C55.2482 17.7626 54.4551 18.0912 53.8092 18.7484C53.1633 19.3942 52.8404 20.1874 52.8404 21.1279C52.8404 22.057 53.1633 22.8558 53.8092 23.5244ZM61.1842 16.8788H68.3226V17.9666H65.3143V25.377H64.1925V17.9666H61.1842V16.8788ZM76.6661 18.5444V16.8788H77.7878V25.377H76.6661V23.7113C75.8843 24.9577 74.7398 25.5809 73.2328 25.5809C72.0204 25.5809 70.9836 25.1503 70.1225 24.2892C69.2727 23.428 68.8478 22.3743 68.8478 21.1279C68.8478 19.8815 69.2727 18.8277 70.1225 17.9666C70.9836 17.1054 72.0204 16.6748 73.2328 16.6748C74.7398 16.6748 75.8843 17.298 76.6661 18.5444ZM70.9383 23.5244C71.5842 24.1702 72.3773 24.4931 73.3178 24.4931C74.2583 24.4931 75.0514 24.1702 75.6973 23.5244C76.3432 22.8558 76.6661 22.057 76.6661 21.1279C76.6661 20.1874 76.3432 19.3942 75.6973 18.7484C75.0514 18.0912 74.2583 17.7626 73.3178 17.7626C72.3773 17.7626 71.5842 18.0912 70.9383 18.7484C70.2925 19.3942 69.9695 20.1874 69.9695 21.1279C69.9695 22.057 70.2925 22.8558 70.9383 23.5244ZM84.0891 16.6748C85.3582 16.6748 86.3723 17.1224 87.1315 18.0175C87.9133 18.9013 88.3042 19.9495 88.3042 21.1619C88.3042 21.2185 88.2929 21.3941 88.2702 21.6887H80.8088C80.9221 22.5386 81.2847 23.2184 81.8966 23.7283C82.5085 24.2382 83.2733 24.4931 84.1911 24.4931C85.4828 24.4931 86.3949 24.0116 86.9275 23.0485L87.9133 23.6263C87.5394 24.2382 87.0238 24.7198 86.3666 25.071C85.7208 25.4109 84.9899 25.5809 84.1741 25.5809C82.837 25.5809 81.7493 25.1617 80.9108 24.3232C80.0723 23.4847 79.6531 22.4196 79.6531 21.1279C79.6531 19.8475 80.0666 18.788 80.8938 17.9496C81.721 17.0997 82.7861 16.6748 84.0891 16.6748ZM84.0891 17.7626C83.2053 17.7626 82.4631 18.0232 81.8626 18.5444C81.2734 19.0656 80.9221 19.7512 80.8088 20.601H87.1485C87.0238 19.6945 86.6782 18.9977 86.1117 18.5104C85.5225 18.0119 84.8483 17.7626 84.0891 17.7626ZM97.125 16.8788H98.4168V25.377H97.295V18.5954L94.3206 23.4224H94.1847L91.2103 18.5954V25.377H90.0885V16.8788H91.3803L94.2527 21.5358L97.125 16.8788ZM107.355 20.9579L111.91 25.377H110.414L106.165 21.2808V25.377H105.043V16.8788H106.165V20.635L110.21 16.8788H111.74L107.355 20.9579ZM119.904 18.5444V16.8788H121.026V25.377H119.904V23.7113C119.122 24.9577 117.978 25.5809 116.471 25.5809C115.258 25.5809 114.221 25.1503 113.36 24.2892C112.51 23.428 112.086 22.3743 112.086 21.1279C112.086 19.8815 112.51 18.8277 113.36 17.9666C114.221 17.1054 115.258 16.6748 116.471 16.6748C117.978 16.6748 119.122 17.298 119.904 18.5444ZM114.176 23.5244C114.822 24.1702 115.615 24.4931 116.556 24.4931C117.496 24.4931 118.289 24.1702 118.935 23.5244C119.581 22.8558 119.904 22.057 119.904 21.1279C119.904 20.1874 119.581 19.3942 118.935 18.7484C118.289 18.0912 117.496 17.7626 116.556 17.7626C115.615 17.7626 114.822 18.0912 114.176 18.7484C113.53 19.3942 113.207 20.1874 113.207 21.1279C113.207 22.057 113.53 22.8558 114.176 23.5244ZM125.712 20.9579L130.267 25.377H128.772L124.522 21.2808V25.377H123.401V16.8788H124.522V20.635L128.568 16.8788H130.097L125.712 20.9579ZM140.009 25.5809C138.728 25.5809 137.663 25.156 136.813 24.3062C135.963 23.4337 135.538 22.3743 135.538 21.1279C135.538 19.8701 135.963 18.8164 136.813 17.9666C137.663 17.1054 138.728 16.6748 140.009 16.6748C140.847 16.6748 141.601 16.8788 142.269 17.2867C142.938 17.6833 143.425 18.2215 143.731 18.9013L142.813 19.4282C142.586 18.9183 142.218 18.5161 141.708 18.2215C141.21 17.9156 140.643 17.7626 140.009 17.7626C139.068 17.7626 138.275 18.0912 137.629 18.7484C136.983 19.3942 136.66 20.1874 136.66 21.1279C136.66 22.057 136.983 22.8558 137.629 23.5244C138.275 24.1702 139.068 24.4931 140.009 24.4931C140.632 24.4931 141.193 24.3458 141.691 24.0512C142.201 23.7566 142.598 23.3487 142.881 22.8275L143.816 23.3714C143.464 24.0512 142.949 24.5895 142.269 24.986C141.589 25.3826 140.836 25.5809 140.009 25.5809ZM154.23 16.6748C155.443 16.6748 156.474 17.1054 157.324 17.9666C158.185 18.8277 158.615 19.8815 158.615 21.1279C158.615 22.3743 158.185 23.428 157.324 24.2892C156.474 25.1503 155.443 25.5809 154.23 25.5809C152.723 25.5809 151.579 24.9577 150.797 23.7113V25.377H149.675V13.4795H150.797V18.5444C151.579 17.298 152.723 16.6748 154.23 16.6748ZM151.766 23.5244C152.412 24.1702 153.205 24.4931 154.145 24.4931C155.086 24.4931 155.879 24.1702 156.525 23.5244C157.171 22.8558 157.494 22.057 157.494 21.1279C157.494 20.1874 157.171 19.3942 156.525 18.7484C155.879 18.0912 155.086 17.7626 154.145 17.7626C153.205 17.7626 152.412 18.0912 151.766 18.7484C151.12 19.3942 150.797 20.1874 150.797 21.1279C150.797 22.057 151.12 22.8558 151.766 23.5244ZM167.202 25.377H159.639V24.3062L163.922 19.9891C165.146 18.7654 165.757 17.7173 165.757 16.8448C165.757 16.1083 165.525 15.5247 165.061 15.0942C164.607 14.6523 164.041 14.4313 163.361 14.4313C162.149 14.4313 161.259 14.9922 160.693 16.1139L159.69 15.5191C160.052 14.7939 160.557 14.2387 161.202 13.8534C161.848 13.4682 162.568 13.2756 163.361 13.2756C164.313 13.2756 165.146 13.5985 165.859 14.2444C166.585 14.8676 166.947 15.7344 166.947 16.8448C166.947 17.502 166.766 18.1478 166.403 18.7824C166.041 19.4056 165.485 20.0911 164.738 20.8389L161.338 24.2212H167.202V25.377ZM173.633 16.6748C174.846 16.6748 175.877 17.1054 176.727 17.9666C177.588 18.8277 178.018 19.8815 178.018 21.1279C178.018 22.3743 177.588 23.428 176.727 24.2892C175.877 25.1503 174.846 25.5809 173.633 25.5809C172.126 25.5809 170.982 24.9577 170.2 23.7113V25.377H169.078V13.4795H170.2V18.5444C170.982 17.298 172.126 16.6748 173.633 16.6748ZM171.169 23.5244C171.815 24.1702 172.608 24.4931 173.548 24.4931C174.489 24.4931 175.282 24.1702 175.928 23.5244C176.574 22.8558 176.897 22.057 176.897 21.1279C176.897 20.1874 176.574 19.3942 175.928 18.7484C175.282 18.0912 174.489 17.7626 173.548 17.7626C172.608 17.7626 171.815 18.0912 171.169 18.7484C170.523 19.3942 170.2 20.1874 170.2 21.1279C170.2 22.057 170.523 22.8558 171.169 23.5244ZM179.713 23.9323H181.073L180.053 27.7564H179.033L179.713 23.9323ZM186.516 16.8788H193.654V17.9666H190.646V25.377H189.524V17.9666H186.516V16.8788ZM201.997 18.5444V16.8788H203.119V25.377H201.997V23.7113C201.216 24.9577 200.071 25.5809 198.564 25.5809C197.352 25.5809 196.315 25.1503 195.454 24.2892C194.604 23.428 194.179 22.3743 194.179 21.1279C194.179 19.8815 194.604 18.8277 195.454 17.9666C196.315 17.1054 197.352 16.6748 198.564 16.6748C200.071 16.6748 201.216 17.298 201.997 18.5444ZM196.27 23.5244C196.916 24.1702 197.709 24.4931 198.649 24.4931C199.59 24.4931 200.383 24.1702 201.029 23.5244C201.675 22.8558 201.997 22.057 201.997 21.1279C201.997 20.1874 201.675 19.3942 201.029 18.7484C200.383 18.0912 199.59 17.7626 198.649 17.7626C197.709 17.7626 196.916 18.0912 196.27 18.7484C195.624 19.3942 195.301 20.1874 195.301 21.1279C195.301 22.057 195.624 22.8558 196.27 23.5244ZM207.806 20.9579L212.361 25.377H210.865L206.616 21.2808V25.377H205.494V16.8788H206.616V20.635L210.661 16.8788H212.191L207.806 20.9579ZM219.264 23.4224L224.329 16.8788H225.28V25.377H224.159V18.8334L219.094 25.377H218.142V16.8788H219.264V23.4224ZM235.862 25.5809C234.581 25.5809 233.516 25.156 232.667 24.3062C231.817 23.4337 231.392 22.3743 231.392 21.1279C231.392 19.8701 231.817 18.8164 232.667 17.9666C233.516 17.1054 234.581 16.6748 235.862 16.6748C236.7 16.6748 237.454 16.8788 238.122 17.2867C238.791 17.6833 239.278 18.2215 239.584 18.9013L238.666 19.4282C238.44 18.9183 238.071 18.5161 237.562 18.2215C237.063 17.9156 236.496 17.7626 235.862 17.7626C234.921 17.7626 234.128 18.0912 233.482 18.7484C232.837 19.3942 232.514 20.1874 232.514 21.1279C232.514 22.057 232.837 22.8558 233.482 23.5244C234.128 24.1702 234.921 24.4931 235.862 24.4931C236.485 24.4931 237.046 24.3458 237.545 24.0512C238.054 23.7566 238.451 23.3487 238.734 22.8275L239.669 23.3714C239.318 24.0512 238.802 24.5895 238.122 24.986C237.443 25.3826 236.689 25.5809 235.862 25.5809ZM250.084 16.6748C251.296 16.6748 252.327 17.1054 253.177 17.9666C254.038 18.8277 254.469 19.8815 254.469 21.1279C254.469 22.3743 254.038 23.428 253.177 24.2892C252.327 25.1503 251.296 25.5809 250.084 25.5809C248.577 25.5809 247.432 24.9577 246.65 23.7113V25.377H245.529V13.4795H246.65V18.5444C247.432 17.298 248.577 16.6748 250.084 16.6748ZM247.619 23.5244C248.265 24.1702 249.058 24.4931 249.999 24.4931C250.939 24.4931 251.732 24.1702 252.378 23.5244C253.024 22.8558 253.347 22.057 253.347 21.1279C253.347 20.1874 253.024 19.3942 252.378 18.7484C251.732 18.0912 250.939 17.7626 249.999 17.7626C249.058 17.7626 248.265 18.0912 247.619 18.7484C246.973 19.3942 246.65 20.1874 246.65 21.1279C246.65 22.057 246.973 22.8558 247.619 23.5244ZM263.055 25.377H255.492V24.3062L259.775 19.9891C260.999 18.7654 261.611 17.7173 261.611 16.8448C261.611 16.1083 261.379 15.5247 260.914 15.0942C260.461 14.6523 259.894 14.4313 259.214 14.4313C258.002 14.4313 257.112 14.9922 256.546 16.1139L255.543 15.5191C255.906 14.7939 256.41 14.2387 257.056 13.8534C257.702 13.4682 258.421 13.2756 259.214 13.2756C260.166 13.2756 260.999 13.5985 261.713 14.2444C262.438 14.8676 262.801 15.7344 262.801 16.8448C262.801 17.502 262.619 18.1478 262.257 18.7824C261.894 19.4056 261.339 20.0911 260.591 20.8389L257.192 24.2212H263.055V25.377ZM268.56 25.5809C267.28 25.5809 266.214 25.156 265.365 24.3062C264.515 23.4337 264.09 22.3743 264.09 21.1279C264.09 19.8701 264.515 18.8164 265.365 17.9666C266.214 17.1054 267.28 16.6748 268.56 16.6748C269.398 16.6748 270.152 16.8788 270.82 17.2867C271.489 17.6833 271.976 18.2215 272.282 18.9013L271.364 19.4282C271.138 18.9183 270.769 18.5161 270.26 18.2215C269.761 17.9156 269.194 17.7626 268.56 17.7626C267.619 17.7626 266.826 18.0912 266.18 18.7484C265.535 19.3942 265.212 20.1874 265.212 21.1279C265.212 22.057 265.535 22.8558 266.18 23.5244C266.826 24.1702 267.619 24.4931 268.56 24.4931C269.183 24.4931 269.744 24.3458 270.243 24.0512C270.752 23.7566 271.149 23.3487 271.432 22.8275L272.367 23.3714C272.016 24.0512 271.5 24.5895 270.82 24.986C270.141 25.3826 269.387 25.5809 268.56 25.5809Z" fill="black"/>
</svg>
