<svg width="311" height="42" viewBox="0 0 311 42" fill="none" xmlns="http://www.w3.org/2000/svg">
<rect width="311" height="42" rx="21" fill="white"/>
<path d="M22.6051 13.4795H31.1033V25.377H29.9136V14.6013H23.7949V25.377H22.6051V13.4795ZM38.2104 16.6748C39.4228 16.6748 40.4539 17.1054 41.3038 17.9666C42.1649 18.8277 42.5955 19.8815 42.5955 21.1279C42.5955 22.3743 42.1649 23.428 41.3038 24.2892C40.4539 25.1503 39.4228 25.5809 38.2104 25.5809C36.7034 25.5809 35.559 24.9577 34.7772 23.7113V28.7762H33.6554V16.8788H34.7772V18.5444C35.559 17.298 36.7034 16.6748 38.2104 16.6748ZM35.746 23.5244C36.3918 24.1702 37.185 24.4931 38.1254 24.4931C39.0659 24.4931 39.8591 24.1702 40.5049 23.5244C41.1508 22.8558 41.4737 22.057 41.4737 21.1279C41.4737 20.1874 41.1508 19.3942 40.5049 18.7484C39.8591 18.0912 39.0659 17.7626 38.1254 17.7626C37.185 17.7626 36.3918 18.0912 35.746 18.7484C35.1001 19.3942 34.7772 20.1874 34.7772 21.1279C34.7772 22.057 35.1001 22.8558 35.746 23.5244ZM45.5824 23.4224L50.6474 16.8788H51.5992V25.377H50.4774V18.8334L45.4125 25.377H44.4607V16.8788H45.5824V23.4224ZM59.3762 21.0089C60.3053 21.3488 60.7699 22.0117 60.7699 22.9975C60.7699 23.7 60.5319 24.2722 60.056 24.7141C59.5915 25.156 58.9399 25.377 58.1014 25.377H53.9713V16.8788H57.7615C58.5773 16.8788 59.2119 17.0884 59.6651 17.5076C60.1297 17.9269 60.362 18.4764 60.362 19.1563C60.362 20.0061 60.0334 20.6236 59.3762 21.0089ZM57.7615 17.9666H55.0931V20.55H57.7615C58.7473 20.55 59.2402 20.1081 59.2402 19.2243C59.2402 18.8277 59.1099 18.5218 58.8493 18.3065C58.6 18.0799 58.2374 17.9666 57.7615 17.9666ZM55.0931 24.2892H58.1014C58.6 24.2892 58.9796 24.1702 59.2402 23.9323C59.5121 23.6943 59.6481 23.3601 59.6481 22.9295C59.6481 22.5216 59.5121 22.2043 59.2402 21.9777C58.9796 21.7511 58.6 21.6378 58.1014 21.6378H55.0931V24.2892ZM69.591 24.3062C68.7185 25.156 67.6647 25.5809 66.4297 25.5809C65.1719 25.5809 64.1125 25.156 63.2513 24.3062C62.3902 23.445 61.9596 22.3856 61.9596 21.1279C61.9596 19.8701 62.3902 18.8164 63.2513 17.9666C64.1125 17.1054 65.1719 16.6748 66.4297 16.6748C67.6761 16.6748 68.7298 17.1054 69.591 17.9666C70.4634 18.8164 70.8997 19.8701 70.8997 21.1279C70.8997 22.3743 70.4634 23.4337 69.591 24.3062ZM64.0502 23.5244C64.696 24.1702 65.4892 24.4931 66.4297 24.4931C67.3701 24.4931 68.1633 24.1702 68.8091 23.5244C69.455 22.8558 69.7779 22.057 69.7779 21.1279C69.7779 20.1874 69.455 19.3942 68.8091 18.7484C68.1633 18.0912 67.3701 17.7626 66.4297 17.7626C65.4892 17.7626 64.696 18.0912 64.0502 18.7484C63.4043 19.3942 63.0814 20.1874 63.0814 21.1279C63.0814 22.057 63.4043 22.8558 64.0502 23.5244ZM76.8299 21.0089C77.8157 21.3828 78.3086 22.0627 78.3086 23.0485C78.3086 23.7623 78.031 24.3628 77.4758 24.8501C76.9433 25.3373 76.1614 25.5809 75.1303 25.5809C73.408 25.5809 72.2863 24.9011 71.765 23.5413L72.7168 22.9805C73.0794 23.9889 73.8839 24.4931 75.1303 24.4931C75.7762 24.4931 76.2804 24.3572 76.643 24.0852C77.0056 23.802 77.1869 23.4337 77.1869 22.9805C77.1869 22.5726 77.0396 22.2496 76.745 22.0117C76.4504 21.7624 76.0538 21.6378 75.5552 21.6378H74.3145V20.55H75.2153C75.7025 20.55 76.0821 20.431 76.3541 20.1931C76.6373 19.9438 76.779 19.6039 76.779 19.1733C76.779 18.7654 76.609 18.4311 76.2691 18.1705C75.9405 17.8986 75.5042 17.7626 74.9604 17.7626C73.9066 17.7626 73.1984 18.1875 72.8358 19.0373L71.901 18.4934C72.4676 17.281 73.4873 16.6748 74.9604 16.6748C75.8668 16.6748 76.5807 16.9128 77.1019 17.3887C77.6344 17.8532 77.9007 18.4255 77.9007 19.1053C77.9007 19.9778 77.5438 20.6123 76.8299 21.0089ZM81.1353 23.4224L86.2002 16.8788H87.152V25.377H86.0303V18.8334L80.9654 25.377H80.0136V16.8788H81.1353V23.4224ZM96.5607 16.8788H97.8524V25.377H96.7307V18.5954L93.7563 23.4224H93.6203L90.646 18.5954V25.377H89.5242V16.8788H90.8159L93.6883 21.5358L96.5607 16.8788ZM108.252 25.5809C107.04 25.5809 106.02 25.1787 105.193 24.3742C104.377 23.5583 103.969 22.5046 103.969 21.2129C103.969 19.7625 104.184 18.6521 104.615 17.8816C105.046 17.0997 105.918 16.3916 107.232 15.757C107.652 15.5644 107.98 15.4171 108.218 15.3151C108.615 15.1565 108.926 15.0205 109.153 14.9072C110.139 14.454 110.637 13.8931 110.649 13.2246L111.532 13.7345C111.476 14.0177 111.385 14.2727 111.261 14.4993C111.113 14.7486 110.966 14.9469 110.819 15.0942C110.683 15.2415 110.467 15.4001 110.173 15.5701C109.98 15.6834 109.748 15.808 109.476 15.944L108.626 16.3009L107.827 16.6408C107.045 16.9808 106.462 17.3377 106.077 17.7116C105.703 18.0742 105.436 18.5501 105.278 19.1393C105.64 18.6521 106.116 18.2838 106.706 18.0345C107.295 17.7739 107.89 17.6436 108.49 17.6436C109.623 17.6436 110.558 18.0175 111.295 18.7654C112.042 19.5019 112.416 20.448 112.416 21.6038C112.416 22.7482 112.02 23.7 111.227 24.4592C110.445 25.207 109.453 25.5809 108.252 25.5809ZM106.043 23.6263C106.632 24.1815 107.368 24.4592 108.252 24.4592C109.136 24.4592 109.861 24.1929 110.428 23.6603C111.006 23.1164 111.295 22.4309 111.295 21.6038C111.295 20.7653 111.023 20.0798 110.479 19.5472C109.946 19.0033 109.232 18.7314 108.337 18.7314C107.533 18.7314 106.802 18.9863 106.145 19.4962C105.487 19.9834 105.159 20.652 105.159 21.5018C105.159 22.3629 105.453 23.0711 106.043 23.6263ZM121.244 24.3062C120.371 25.156 119.318 25.5809 118.083 25.5809C116.825 25.5809 115.765 25.156 114.904 24.3062C114.043 23.445 113.613 22.3856 113.613 21.1279C113.613 19.8701 114.043 18.8164 114.904 17.9666C115.765 17.1054 116.825 16.6748 118.083 16.6748C119.329 16.6748 120.383 17.1054 121.244 17.9666C122.116 18.8164 122.553 19.8701 122.553 21.1279C122.553 22.3743 122.116 23.4337 121.244 24.3062ZM115.703 23.5244C116.349 24.1702 117.142 24.4931 118.083 24.4931C119.023 24.4931 119.816 24.1702 120.462 23.5244C121.108 22.8558 121.431 22.057 121.431 21.1279C121.431 20.1874 121.108 19.3942 120.462 18.7484C119.816 18.0912 119.023 17.7626 118.083 17.7626C117.142 17.7626 116.349 18.0912 115.703 18.7484C115.057 19.3942 114.734 20.1874 114.734 21.1279C114.734 22.057 115.057 22.8558 115.703 23.5244ZM124.982 16.8788H131.066V25.377H129.945V17.9666H126.103V21.7567C126.103 23.1731 125.831 24.1476 125.288 24.6801C124.755 25.2127 124.019 25.4449 123.078 25.377V24.3232C123.735 24.3912 124.217 24.2325 124.523 23.8473C124.829 23.462 124.982 22.7652 124.982 21.7567V16.8788ZM137.369 16.6748C138.638 16.6748 139.652 17.1224 140.411 18.0175C141.193 18.9013 141.584 19.9495 141.584 21.1619C141.584 21.2185 141.572 21.3941 141.55 21.6887H134.088C134.202 22.5386 134.564 23.2184 135.176 23.7283C135.788 24.2382 136.553 24.4931 137.471 24.4931C138.762 24.4931 139.674 24.0116 140.207 23.0485L141.193 23.6263C140.819 24.2382 140.303 24.7198 139.646 25.071C139 25.4109 138.269 25.5809 137.454 25.5809C136.117 25.5809 135.029 25.1617 134.19 24.3232C133.352 23.4847 132.933 22.4196 132.933 21.1279C132.933 19.8475 133.346 18.788 134.173 17.9496C135 17.0997 136.066 16.6748 137.369 16.6748ZM137.369 17.7626C136.485 17.7626 135.743 18.0232 135.142 18.5444C134.553 19.0656 134.202 19.7512 134.088 20.601H140.428C140.303 19.6945 139.958 18.9977 139.391 18.5104C138.802 18.0119 138.128 17.7626 137.369 17.7626ZM147.294 16.6748C148.563 16.6748 149.577 17.1224 150.337 18.0175C151.118 18.9013 151.509 19.9495 151.509 21.1619C151.509 21.2185 151.498 21.3941 151.475 21.6887H144.014C144.127 22.5386 144.49 23.2184 145.102 23.7283C145.714 24.2382 146.478 24.4931 147.396 24.4931C148.688 24.4931 149.6 24.0116 150.133 23.0485L151.118 23.6263C150.744 24.2382 150.229 24.7198 149.572 25.071C148.926 25.4109 148.195 25.5809 147.379 25.5809C146.042 25.5809 144.954 25.1617 144.116 24.3232C143.277 23.4847 142.858 22.4196 142.858 21.1279C142.858 19.8475 143.272 18.788 144.099 17.9496C144.926 17.0997 145.991 16.6748 147.294 16.6748ZM147.294 17.7626C146.41 17.7626 145.668 18.0232 145.068 18.5444C144.479 19.0656 144.127 19.7512 144.014 20.601H150.354C150.229 19.6945 149.883 18.9977 149.317 18.5104C148.728 18.0119 148.053 17.7626 147.294 17.7626ZM156.608 14.5673L159.752 13.4795H160.772V25.377H159.582V14.7882L156.914 15.5871L156.608 14.5673ZM170.797 23.9153C170.015 25.0257 168.911 25.5809 167.483 25.5809C166.067 25.5809 164.956 25.0257 164.152 23.9153C163.37 22.7935 162.979 21.2978 162.979 19.4282C162.979 17.5473 163.37 16.0573 164.152 14.9582C164.956 13.8364 166.067 13.2756 167.483 13.2756C168.911 13.2756 170.015 13.8364 170.797 14.9582C171.59 16.0573 171.987 17.5473 171.987 19.4282C171.987 21.3092 171.59 22.8048 170.797 23.9153ZM165.035 23.1164C165.636 23.9889 166.452 24.4252 167.483 24.4252C168.525 24.4252 169.336 23.9889 169.913 23.1164C170.503 22.2553 170.797 21.0259 170.797 19.4282C170.797 17.8306 170.503 16.6012 169.913 15.74C169.336 14.8676 168.525 14.4313 167.483 14.4313C166.452 14.4313 165.636 14.8676 165.035 15.74C164.458 16.6125 164.169 17.8419 164.169 19.4282C164.169 21.0146 164.458 22.244 165.035 23.1164ZM181.503 23.9153C180.721 25.0257 179.616 25.5809 178.189 25.5809C176.772 25.5809 175.662 25.0257 174.857 23.9153C174.076 22.7935 173.685 21.2978 173.685 19.4282C173.685 17.5473 174.076 16.0573 174.857 14.9582C175.662 13.8364 176.772 13.2756 178.189 13.2756C179.616 13.2756 180.721 13.8364 181.503 14.9582C182.296 16.0573 182.693 17.5473 182.693 19.4282C182.693 21.3092 182.296 22.8048 181.503 23.9153ZM175.741 23.1164C176.342 23.9889 177.158 24.4252 178.189 24.4252C179.231 24.4252 180.041 23.9889 180.619 23.1164C181.208 22.2553 181.503 21.0259 181.503 19.4282C181.503 17.8306 181.208 16.6012 180.619 15.74C180.041 14.8676 179.231 14.4313 178.189 14.4313C177.158 14.4313 176.342 14.8676 175.741 15.74C175.163 16.6125 174.874 17.8419 174.874 19.4282C174.874 21.0146 175.163 22.244 175.741 23.1164ZM192.209 23.9153C191.427 25.0257 190.322 25.5809 188.894 25.5809C187.478 25.5809 186.368 25.0257 185.563 23.9153C184.781 22.7935 184.39 21.2978 184.39 19.4282C184.39 17.5473 184.781 16.0573 185.563 14.9582C186.368 13.8364 187.478 13.2756 188.894 13.2756C190.322 13.2756 191.427 13.8364 192.209 14.9582C193.002 16.0573 193.398 17.5473 193.398 19.4282C193.398 21.3092 193.002 22.8048 192.209 23.9153ZM186.447 23.1164C187.047 23.9889 187.863 24.4252 188.894 24.4252C189.937 24.4252 190.747 23.9889 191.325 23.1164C191.914 22.2553 192.209 21.0259 192.209 19.4282C192.209 17.8306 191.914 16.6012 191.325 15.74C190.747 14.8676 189.937 14.4313 188.894 14.4313C187.863 14.4313 187.047 14.8676 186.447 15.74C185.869 16.6125 185.58 17.8419 185.58 19.4282C185.58 21.0146 185.869 22.244 186.447 23.1164ZM206.993 18.5444V16.8788H208.115V25.377H206.993V23.7113C206.212 24.9577 205.067 25.5809 203.56 25.5809C202.348 25.5809 201.311 25.1503 200.45 24.2892C199.6 23.428 199.175 22.3743 199.175 21.1279C199.175 19.8815 199.6 18.8277 200.45 17.9666C201.311 17.1054 202.348 16.6748 203.56 16.6748C205.067 16.6748 206.212 17.298 206.993 18.5444ZM201.266 23.5244C201.912 24.1702 202.705 24.4931 203.645 24.4931C204.586 24.4931 205.379 24.1702 206.025 23.5244C206.671 22.8558 206.993 22.057 206.993 21.1279C206.993 20.1874 206.671 19.3942 206.025 18.7484C205.379 18.0912 204.586 17.7626 203.645 17.7626C202.705 17.7626 201.912 18.0912 201.266 18.7484C200.62 19.3942 200.297 20.1874 200.297 21.1279C200.297 22.057 200.62 22.8558 201.266 23.5244ZM215.895 21.0089C216.824 21.3488 217.289 22.0117 217.289 22.9975C217.289 23.7 217.051 24.2722 216.575 24.7141C216.11 25.156 215.459 25.377 214.62 25.377H210.49V16.8788H214.281C215.096 16.8788 215.731 17.0884 216.184 17.5076C216.649 17.9269 216.881 18.4764 216.881 19.1563C216.881 20.0061 216.552 20.6236 215.895 21.0089ZM214.281 17.9666H211.612V20.55H214.281C215.266 20.55 215.759 20.1081 215.759 19.2243C215.759 18.8277 215.629 18.5218 215.368 18.3065C215.119 18.0799 214.756 17.9666 214.281 17.9666ZM211.612 24.2892H214.62C215.119 24.2892 215.499 24.1702 215.759 23.9323C216.031 23.6943 216.167 23.3601 216.167 22.9295C216.167 22.5216 216.031 22.2043 215.759 21.9777C215.499 21.7511 215.119 21.6378 214.62 21.6378H211.612V24.2892ZM217.637 16.8788H224.775V17.9666H221.767V25.377H220.645V17.9666H217.637V16.8788ZM232.932 24.3062C232.059 25.156 231.005 25.5809 229.77 25.5809C228.513 25.5809 227.453 25.156 226.592 24.3062C225.731 23.445 225.3 22.3856 225.3 21.1279C225.3 19.8701 225.731 18.8164 226.592 17.9666C227.453 17.1054 228.513 16.6748 229.77 16.6748C231.017 16.6748 232.071 17.1054 232.932 17.9666C233.804 18.8164 234.24 19.8701 234.24 21.1279C234.24 22.3743 233.804 23.4337 232.932 24.3062ZM227.391 23.5244C228.037 24.1702 228.83 24.4931 229.77 24.4931C230.711 24.4931 231.504 24.1702 232.15 23.5244C232.796 22.8558 233.119 22.057 233.119 21.1279C233.119 20.1874 232.796 19.3942 232.15 18.7484C231.504 18.0912 230.711 17.7626 229.77 17.7626C228.83 17.7626 228.037 18.0912 227.391 18.7484C226.745 19.3942 226.422 20.1874 226.422 21.1279C226.422 22.057 226.745 22.8558 227.391 23.5244ZM244.752 21.0089C245.738 21.3828 246.23 22.0627 246.23 23.0485C246.23 23.7623 245.953 24.3628 245.398 24.8501C244.865 25.3373 244.083 25.5809 243.052 25.5809C241.33 25.5809 240.208 24.9011 239.687 23.5413L240.639 22.9805C241.001 23.9889 241.806 24.4931 243.052 24.4931C243.698 24.4931 244.202 24.3572 244.565 24.0852C244.927 23.802 245.109 23.4337 245.109 22.9805C245.109 22.5726 244.961 22.2496 244.667 22.0117C244.372 21.7624 243.976 21.6378 243.477 21.6378H242.236V20.55H243.137C243.624 20.55 244.004 20.431 244.276 20.1931C244.559 19.9438 244.701 19.6039 244.701 19.1733C244.701 18.7654 244.531 18.4311 244.191 18.1705C243.862 17.8986 243.426 17.7626 242.882 17.7626C241.828 17.7626 241.12 18.1875 240.758 19.0373L239.823 18.4934C240.389 17.281 241.409 16.6748 242.882 16.6748C243.789 16.6748 244.502 16.9128 245.024 17.3887C245.556 17.8532 245.823 18.4255 245.823 19.1053C245.823 19.9778 245.466 20.6123 244.752 21.0089ZM255.244 18.5444V16.8788H256.366V25.377H255.244V23.7113C254.462 24.9577 253.318 25.5809 251.811 25.5809C250.598 25.5809 249.561 25.1503 248.7 24.2892C247.85 23.428 247.425 22.3743 247.425 21.1279C247.425 19.8815 247.85 18.8277 248.7 17.9666C249.561 17.1054 250.598 16.6748 251.811 16.6748C253.318 16.6748 254.462 17.298 255.244 18.5444ZM249.516 23.5244C250.162 24.1702 250.955 24.4931 251.896 24.4931C252.836 24.4931 253.629 24.1702 254.275 23.5244C254.921 22.8558 255.244 22.057 255.244 21.1279C255.244 20.1874 254.921 19.3942 254.275 18.7484C253.629 18.0912 252.836 17.7626 251.896 17.7626C250.955 17.7626 250.162 18.0912 249.516 18.7484C248.87 19.3942 248.547 20.1874 248.547 21.1279C248.547 22.057 248.87 22.8558 249.516 23.5244ZM262.99 16.8788H268.429V17.9666H264.112V25.377H262.99V16.8788ZM276.584 24.3062C275.712 25.156 274.658 25.5809 273.423 25.5809C272.165 25.5809 271.106 25.156 270.245 24.3062C269.384 23.445 268.953 22.3856 268.953 21.1279C268.953 19.8701 269.384 18.8164 270.245 17.9666C271.106 17.1054 272.165 16.6748 273.423 16.6748C274.67 16.6748 275.723 17.1054 276.584 17.9666C277.457 18.8164 277.893 19.8701 277.893 21.1279C277.893 22.3743 277.457 23.4337 276.584 24.3062ZM271.044 23.5244C271.689 24.1702 272.483 24.4931 273.423 24.4931C274.364 24.4931 275.157 24.1702 275.803 23.5244C276.448 22.8558 276.771 22.057 276.771 21.1279C276.771 20.1874 276.448 19.3942 275.803 18.7484C275.157 18.0912 274.364 17.7626 273.423 17.7626C272.483 17.7626 271.689 18.0912 271.044 18.7484C270.398 19.3942 270.075 20.1874 270.075 21.1279C270.075 22.057 270.398 22.8558 271.044 23.5244ZM286.577 16.8788V24.2892H287.767V27.6545H286.645V25.377H279.71V27.6545H278.589V24.2892H279.625C280.203 23.5187 280.492 22.4479 280.492 21.0769V16.8788H286.577ZM280.985 24.2892H285.455V17.9666H281.614V21.0769C281.614 22.3913 281.404 23.462 280.985 24.2892Z" fill="black"/>
</svg>
