<svg width="33" height="33" fill="none" xmlns="http://www.w3.org/2000/svg"><g clip-path="url(#a)"><path d="M17.531 0C8.971 0 2.063 6.978 2.063 15.572c0 2.853.756 5.603 2.2 8.01L0 33l9.866-3.85a15.31 15.31 0 0 0 7.665 2.028C26.091 31.178 33 24.2 33 15.606 33 7.013 26.056 0 17.531 0Zm0 29.803c-2.44 0-4.847-.619-6.978-1.856l-.584-.344-7.322 2.888 3.162-6.979-.378-.618a14.372 14.372 0 0 1-1.994-7.322C3.404 7.769 9.694 1.375 17.532 1.375c7.838 0 14.094 6.394 14.094 14.197 0 7.803-6.29 14.231-14.094 14.231Zm5.397-11.997c-.997-.481-2.44-1.41-3.54-.997-.688.275-1.032.894-1.479 1.444-.825-.412-1.822-1.031-2.337-1.65-.172-.206-.619-.722-.894-1.1a2.25 2.25 0 0 0 .413-.515c.653-.997.653-1.513.206-2.579-.172-.412-.344-.859-.516-1.272-.515-1.203-.825-2.371-2.44-2.406-.482 0-.928-.034-1.375.138-1.204.412-2.166 1.787-2.51 2.99-.378 1.41-.206 2.716.378 4.022.62 1.41 2.303 3.61 3.404 4.675.343.31.687.585 1.03.894.379.344.791.584 1.204.86 1.615 1.065 4.71 2.234 6.6 1.856 1.203-.241 2.612-1.1 3.197-2.2.31-.585.515-1.616.447-2.303-.104-1.135-.928-1.41-1.788-1.857Zm.138 3.54c-.31.62-1.307 1.307-2.235 1.479-1.547.31-4.365-.825-5.603-1.65-.378-.275-.687-.447-1.066-.756-.378-.31-.653-.55-.962-.86-.962-.928-2.578-3.059-3.094-4.228-.412-.962-.653-1.96-.31-3.093.242-.825.929-1.822 1.617-2.029.24-.103.618-.068.928-.068.756 0 .79.618 1.203 1.546.172.447.343.86.515 1.307.275.619.31.687-.103 1.272-.756 1.134-1.615.618.585 3.23.721.895 2.165 1.754 3.3 2.235.618.275.825-.172 1.1-.515 1.203-1.444.55-1.582 3.403-.172.618.31.997.378 1.065.79 0 .413-.171 1.204-.343 1.513Z" fill="#fff"/></g><defs><clipPath id="a"><path fill="#fff" d="M0 0h33v33H0z"/></clipPath></defs></svg>