<svg width="35" height="35" fill="none" xmlns="http://www.w3.org/2000/svg"><g clip-path="url(#a)"><path d="M18.338 30.02c-3.98 0-8.313-.125-12.878-.371-2.697-.148-4.789-2.227-5.086-5.057a67.523 67.523 0 0 1 0-14.186C.67 7.6 2.76 5.521 5.454 5.351a195.382 195.382 0 0 1 24.09 0c2.726.165 4.768 2.196 5.083 5.052.497 4.524.497 9.296 0 14.187-.286 2.828-2.327 4.86-5.076 5.058-3.46.247-7.232.373-11.212.373Zm-.93-23.697c-3.968 0-7.962.125-11.87.37-2.06.13-3.598 1.679-3.828 3.855a66.197 66.197 0 0 0 0 13.903c.23 2.194 1.767 3.743 3.822 3.855 4.541.245 8.85.37 12.805.37 3.949 0 7.69-.124 11.117-.369 2.075-.149 3.616-1.697 3.835-3.853.488-4.797.488-9.474 0-13.903-.24-2.183-1.778-3.733-3.827-3.858a198.74 198.74 0 0 0-12.055-.37Zm-3.332 6.415v9.226l8.86-4.582-8.86-4.644Z" fill="#fff"/></g><defs><clipPath id="a"><path fill="#fff" d="M0 0h35v35H0z"/></clipPath></defs></svg>