<?xml version="1.0" standalone="no"?>
<!DOCTYPE svg PUBLIC "-//W3C//DTD SVG 1.1//EN" "http://www.w3.org/Graphics/SVG/1.1/DTD/svg11.dtd" >
<svg xmlns="http://www.w3.org/2000/svg" xmlns:xlink="http://www.w3.org/1999/xlink" version="1.1">
<metadata></metadata>
<defs>
<font id="spacegateregular" horiz-adv-x="800" >
<font-face units-per-em="1000" ascent="750" descent="-250" />
<missing-glyph horiz-adv-x="519" />
<glyph horiz-adv-x="0" />
<glyph unicode="&#xd;" horiz-adv-x="519" />
<glyph horiz-adv-x="869" d="M40 0l526 400h263v-400h-149v54h-363l-71 -54h-206zM680 286h-59l-154 -117h213v117zM614 563v-115h-149v115h149zM680 563v-115h149v115h-149v0z" />
<glyph horiz-adv-x="869" d="M40 0l526 400h263v-400h-149v54h-363l-71 -54h-206zM680 286h-59l-154 -117h213v117zM614 563v-115h-149v115h149zM680 563v-115h149v115h-149v0z" />
<glyph horiz-adv-x="0" />
<glyph unicode=" "  horiz-adv-x="519" />
<glyph unicode="&#x09;" horiz-adv-x="519" />
<glyph unicode="&#xa0;" horiz-adv-x="519" />
<glyph unicode="!" horiz-adv-x="249" d="M199 172h-149v424h149v-424v0zM199 0h-149v114h149v-114v0z" />
<glyph unicode="$" horiz-adv-x="748" d="M550 296q31 0 58 -11.5t47 -31.5t31.5 -47t11.5 -58t-11.5 -58t-31.5 -47t-47 -31.5t-58 -11.5h-102v-104h-148v104h-236l109 114h360q14 0 24 10t10 24t-10 24t-24 10h-335q-31 0 -58 11.5t-47 32t-31.5 47.5t-11.5 58t11.5 58t31.5 47t47 31.5t58 11.5h102v73h148v-73 h232l-116 -114h-349q-14 0 -24 -10t-10 -24t10 -24.5t24 -10.5h335v0z" />
<glyph unicode="%" horiz-adv-x="841" d="M761 485l-484 -485h-197l484 485h197zM620 245q25 0 47.5 -9.5t39 -26.5t26 -39.5t9.5 -47.5t-9.5 -47.5t-26 -39t-39 -26t-47.5 -9.5q-26 0 -48 9.5t-39 26t-26.5 39t-9.5 47.5t9.5 47.5t26.5 39.5t39 26.5t48 9.5zM620 103q8 0 13 5.5t5 13.5t-5 13t-13 5t-13 -5 t-5 -13t5 -13.5t13 -5.5zM222 485q25 0 47.5 -9.5t39 -26.5t26 -39.5t9.5 -47.5t-9.5 -47.5t-26 -39t-39 -26t-47.5 -9.5q-26 0 -48 9.5t-39 26t-26.5 39t-9.5 47.5t9.5 47.5t26.5 39.5t39 26.5t48 9.5zM222 344q8 0 13 5t5 13t-5 13t-13 5t-13 -5t-5 -13t5 -13t13 -5z" />
<glyph unicode="&#x26;" horiz-adv-x="707" d="M480 0l-33 45q-3 -2 -4.5 -4t-3.5 -3q-23 -19 -46.5 -28.5t-52.5 -9.5h-142q-31 0 -58 11.5t-47 31.5t-31.5 47t-11.5 58q0 29 13 55.5t33 45.5l122 108l-31 43q-20 26 -33 51t-13 57q0 31 11.5 58t31.5 47t47 31.5t58 11.5h84q31 0 58 -11.5t47 -31.5t31.5 -47t11.5 -58 q0 -30 -11 -54t-28.5 -44t-40 -37t-45.5 -33l84 -110l93 74l77 -97q-13 -11 -29 -23q-14 -11 -31 -24.5t-35 -27.5l102 -132h-177zM318 542q-14 0 -24.5 -10t-10.5 -24q0 -20 9.5 -34.5t27.5 -37.5q25 17 42 34.5t17 37.5q0 14 -10.5 24t-24.5 10h-26zM373 146l-82 112 l-103 -89q-11 -8 -14 -18t-0.5 -18t10.5 -13.5t20 -5.5h108q15 0 24 5t15 10z" />
<glyph unicode="'" horiz-adv-x="303" d="M40 682h148l75 -152h-123l-100 152v0z" />
<glyph unicode="(" horiz-adv-x="283" d="M215 475q-14 0 -24 -10t-10 -24v-406q0 -14 10 -24t24 -10h18v-114h-35q-31 0 -58 11.5t-47 31.5t-31.5 47t-11.5 58v406q0 31 11.5 58t31.5 47t47 31.5t58 11.5h35v-114h-18v0z" />
<glyph unicode=")" horiz-adv-x="283" d="M67 475h-17v114h35q30 0 57 -11.5t47.5 -31.5t32 -47t11.5 -58v-406q0 -31 -11.5 -58t-32 -47t-47.5 -31.5t-57 -11.5h-35v114h17q14 0 24.5 10t10.5 24v406q0 14 -10.5 24t-24.5 10z" />
<glyph unicode="*" horiz-adv-x="593" d="M543 407v-108h-117l83 -83l-76 -76l-83 83v-117h-107v117l-83 -83l-76 76l83 83h-117v108h117l-83 82l76 76l83 -82v117h107v-117l83 82l76 -76l-83 -82h117v0z" />
<glyph unicode="+" horiz-adv-x="450" d="M400 282v-133h-106v-108h-138v108h-106v133h106v109h138v-109h106v0z" />
<glyph unicode="," horiz-adv-x="229" d="M40 114h149v-114l-50 -76h-86l50 76h-63v114v0z" />
<glyph unicode="-" horiz-adv-x="450" d="M50 151v134h350v-134h-350v0z" />
<glyph unicode="." horiz-adv-x="229" d="M189 0h-149v114h149v-114v0z" />
<glyph unicode="/" horiz-adv-x="524" d="M213 0h-163l261 485h163l-261 -485v0z" />
<glyph unicode="0" horiz-adv-x="742" d="M692 149q0 -30 -11.5 -57t-31 -47t-46 -32t-56.5 -13h-348q-31 0 -58 11.5t-47.5 32t-32 47.5t-11.5 58v182q0 31 11.5 58t32 47t47.5 32t58 12h345q30 0 56 -11t46 -30t32 -44.5t14 -54.5v-191zM561 331q0 14 -10.5 24.5t-24.5 10.5h-310q-14 0 -24.5 -10.5t-10.5 -24.5 v-182q0 -14 10.5 -24.5t24.5 -10.5h310q14 0 24.5 10.5t10.5 24.5v182z" />
<glyph unicode="1" horiz-adv-x="335" d="M137 480h138h10v-480h-148v366h-87l50 114h37v0z" />
<glyph unicode="2" horiz-adv-x="695" d="M599 223q-25 -20 -58.5 -31t-70 -17.5t-73.5 -10t-69 -9t-57 -14.5t-38 -27h407v-114h-590q0 64 25 122t90 100q32 20 82.5 29.5t101.5 16t94.5 15t62.5 26.5q8 10 8 22q0 14 -10 24.5t-24 10.5h-236q-14 0 -24 -10.5t-10 -24.5h-131q0 31 11.5 58t31.5 47t47 32t58 12 h270q31 0 58 -12t47 -32t31.5 -47t11.5 -58q0 -32 -12 -60t-34 -48z" />
<glyph unicode="3" horiz-adv-x="742" d="M628 271q29 -20 46.5 -52t17.5 -70q0 -31 -11.5 -58t-31.5 -47.5t-47 -32t-58 -11.5h-345q-31 0 -58 11.5t-47.5 32t-32 47.5t-11.5 58h131q0 -14 10.5 -24.5t24.5 -10.5h310q14 0 24.5 10.5t10.5 24.5t-10.5 24t-24.5 10h-321v114h270q14 0 24 10t10 24t-10 24.5 t-24 10.5h-236q-14 0 -24.5 -10.5t-10.5 -24.5h-131q0 31 11.5 58t31.5 47t47 32t58 12h271q31 0 58 -12t47 -32t31.5 -47t11.5 -58q0 -33 -12 -60z" />
<glyph unicode="4" horiz-adv-x="724" d="M525 297v183h149v-480h-149v183h-475l129 297h149l-80 -183h277v0z" />
<glyph unicode="5" horiz-adv-x="725" d="M526 297q31 0 58 -11.5t47 -31.5t32 -47t12 -58t-12 -58t-32 -47.5t-47 -32t-58 -11.5h-327q-31 0 -58 11.5t-47.5 32t-32 47.5t-11.5 58h131q0 -14 10.5 -24.5t24.5 -10.5h293q14 0 24.5 10.5t10.5 24.5t-10.5 24t-24.5 10h-310h-149v297h595v-114h-446v-69h327v0z" />
<glyph unicode="6" horiz-adv-x="742" d="M553 297q29 -2 54.5 -14.5t44 -32.5t29.5 -46t11 -55q0 -31 -11.5 -58t-31.5 -47.5t-47 -32t-58 -11.5h-345q-31 0 -58 11.5t-47.5 32t-32 47.5t-11.5 58v182q0 30 11.5 57t31 47t46 32t56.5 13h341v-5l1 5q31 0 58 -12t47 -32t31.5 -47t11.5 -58h-131q0 14 -10 24.5 t-24 10.5h-304q-14 0 -24.5 -10.5t-10.5 -24.5v-35q5 1 9 1h9h354zM526 114q14 0 24.5 10.5t10.5 24.5t-10.5 24t-24.5 10h-310q-14 0 -24.5 -10t-10.5 -24t10.5 -24.5t24.5 -10.5h310z" />
<glyph unicode="7" horiz-adv-x="593" d="M50 480h584l-324 -480h-180l266 366h-346v114v0z" />
<glyph unicode="8" horiz-adv-x="755" d="M641 271q29 -20 46.5 -52t17.5 -70q0 -31 -11.5 -58t-31.5 -47.5t-47 -32t-58 -11.5h-358q-31 0 -58 11.5t-47.5 32t-32 47.5t-11.5 58q0 38 18 70t47 52q-13 26 -13 60q0 29 10 54.5t28 45.5t42 32.5t52 15.5v1h271q31 0 58 -12t47 -32t31.5 -47t11.5 -58q0 -33 -12 -60 zM267 366q-14 0 -24 -10.5t-10 -24.5t10 -24t24 -10h221q14 0 24 10t10 24t-10 24.5t-24 10.5h-221zM539 114q14 0 24.5 10.5t10.5 24.5t-10.5 24t-24.5 10h-323q-14 0 -24.5 -10t-10.5 -24t10.5 -24.5t24.5 -10.5h323z" />
<glyph unicode="9" horiz-adv-x="742" d="M544 480q31 0 58 -12t47 -32t31.5 -47t11.5 -58v-182q0 -30 -11.5 -57t-31 -47t-46 -32t-56.5 -13h-341v5l-1 -5q-31 0 -58 11.5t-47 32t-31.5 47.5t-11.5 58h131q0 -14 10 -24.5t24 -10.5h304q14 0 24.5 10.5t10.5 24.5v35q-5 -1 -9 -1h-8h-355q-29 2 -54.5 14t-44.5 32 t-29.5 46t-10.5 56q0 31 11.5 58t32 47t47.5 32t58 12h345zM526 297q14 0 24.5 10t10.5 24t-10.5 24.5t-24.5 10.5h-310q-14 0 -24.5 -10.5t-10.5 -24.5t10.5 -24t24.5 -10h310z" />
<glyph unicode=":" horiz-adv-x="249" d="M199 216h-149v114h149v-114v0zM199 0h-149v114h149v-114v0z" />
<glyph unicode="&#x3c;" horiz-adv-x="542" d="M250 242l242 -242h-200l-242 242l242 242h200z" />
<glyph unicode="=" horiz-adv-x="450" d="M50 239v133h350v-133h-350v0zM50 45v133h350v-133h-350v0z" />
<glyph unicode="&#x3e;" horiz-adv-x="542" d="M50 484h200l242 -242l-242 -242h-200l242 242l-242 242v0z" />
<glyph unicode="?" horiz-adv-x="678" d="M234 114h148v-114h-148v114zM461 596q34 0 64.5 -13t53.5 -35.5t36 -53t13 -65.5t-13 -65t-36 -53t-53.5 -36t-64.5 -13h-40q-16 0 -27.5 -11.5t-11.5 -27.5v-51h-148v51q0 34 13 64.5t36 53.5t53.5 36t65.5 13h40q16 0 27 11.5t11 27.5t-11 27.5t-27 11.5h-205 q-17 0 -28 -11.5t-11 -27.5h-148q0 35 13 65.5t36 53t53 35.5t65 13h244z" />
<glyph unicode="@" horiz-adv-x="885" d="M390 89q-31 0 -58.5 12t-47.5 32.5t-32 48t-12 58.5t12 58.5t32 48t47.5 32.5t58.5 12h104q31 0 58.5 -12t48 -32t32.5 -48t12 -59q0 -17 11.5 -28.5t28.5 -11.5t27.5 11.5t10.5 28.5q0 48 -18 89.5t-49 72.5t-73 49t-89 18h-104h-1q-46 0 -87.5 -17.5t-73.5 -49.5 q-66 -68 -66 -162t66 -162q32 -32 73.5 -49.5t87.5 -17.5h1h104q62 0 115 31q35 -16 79 -16t89 23q-47 -68 -121 -109t-162 -41h-104h-1h-1q-69 1 -130 27t-109 74t-73.5 109.5t-25.5 130.5t25.5 130.5t73.5 109.5t109 74t130 27h1h1h104q70 0 132.5 -27t108.5 -73 t73 -108.5t27 -132.5q0 -32 -12 -59.5t-32 -47.5t-47.5 -32t-58.5 -12q-56 0 -96 34q-40 -34 -95 -34h-104zM351 240q0 -17 11.5 -28t28.5 -12h3h100q17 0 28.5 11.5t11.5 28.5t-11.5 28.5t-28.5 11.5h-101h-2q-17 -1 -28.5 -12t-11.5 -28z" />
<glyph unicode="A" horiz-adv-x="906" d="M537 400h9l330 -400h-177l-45 54h-402l-45 -54h-177l330 400h9h168zM346 169h214l-107 129z" />
<glyph unicode="B" d="M707 232q24 -17 38.5 -44t14.5 -59q0 -27 -10 -50.5t-27.5 -41t-41 -27.5t-50.5 -10h-591v400h544q27 0 50.5 -10t41 -27.5t27.5 -41t10 -50.5q0 -20 -6 -39zM189 257h367q14 0 14 14q0 6 -4 10.5t-10 4.5h-367v-29zM603 114q6 0 10 4.5t4 10.5q0 5 -4 9.5t-10 4.5h-414 v-29h414z" />
<glyph unicode="C" d="M40 200q0 41 15.5 77.5t42.5 63.5t63.5 43t78.5 16h520v-114h-497q-15 0 -29.5 -6.5t-26 -18t-18.5 -27t-7 -34.5t7 -35t18.5 -27t26 -17.5t29.5 -6.5h497v-114h-520q-42 0 -78.5 15.5t-63.5 42.5t-42.5 63.5t-15.5 78.5z" />
<glyph unicode="D" d="M560 400q41 0 77.5 -16t63.5 -43t43 -63.5t16 -77.5q0 -42 -16 -78.5t-43 -63.5t-63.5 -42.5t-77.5 -15.5h-520v400h520zM537 114q15 0 29.5 6.5t26 17.5t18.5 27t7 35t-7 34.5t-18.5 27t-26 18t-29.5 6.5h-348v-172h348z" />
<glyph unicode="E" d="M40 400h720v-114h-571v-29h399v-114h-399v-29h571v-114h-720v400v0z" />
<glyph unicode="F" d="M760 286h-571v-29h399v-114h-399v-143h-149v400h720v-114v0z" />
<glyph unicode="G" d="M40 200q0 41 15.5 77.5t42.5 63.5t63.5 43t78.5 16h520v-114h-497q-15 0 -29.5 -6.5t-26 -18t-18.5 -27t-7 -34.5t7 -35t18.5 -27t26 -17.5t29.5 -6.5h348v29h-248v114h397v-257h-149h-371q-42 0 -78.5 15.5t-63.5 42.5t-42.5 63.5t-15.5 78.5z" />
<glyph unicode="H" d="M611 257v143h149v-400h-149v143h-422v-143h-149v400h149v-143h422v0z" />
<glyph unicode="I" horiz-adv-x="209" d="M30 0v400h149v-400h-149v0z" />
<glyph unicode="J" d="M760 400v-200q0 -42 -16 -78.5t-43 -63.5t-63.5 -42.5t-77.5 -15.5h-320q-42 0 -78.5 15.5t-63.5 42.5t-42.5 63.5t-15.5 78.5h130q0 -15 5.5 -30t15 -27.5t22 -20.5t27.5 -8h320q15 0 27.5 8t22 20.5t15 27.5t5.5 30v86h-93v114h223z" />
<glyph unicode="K" horiz-adv-x="851" d="M686 400l-221 -151l346 -249h-211l-256 166l-155 -106v-60h-149v400h149v-201l285 201h212v0z" />
<glyph unicode="L" horiz-adv-x="763" d="M189 400v-286h534v-114h-683v400h149v0z" />
<glyph unicode="M" horiz-adv-x="994" d="M806 400h148v-400h-148v235l-309 -235l-308 235v-235h-149v400h149l308 -230l309 230v0z" />
<glyph unicode="N" d="M611 137v263h149v-400h-149l-422 263v-263h-149v400h149l422 -263v0z" />
<glyph unicode="O" horiz-adv-x="869" d="M639 400q41 0 77.5 -16t63.5 -43t43 -63.5t16 -77.5q0 -42 -16 -78.5t-43 -63.5t-63.5 -42.5t-77.5 -15.5h-411q-41 0 -77 16t-63 43t-42.5 63.5t-15.5 77.5t15.5 77.5t42.5 63.5t63 43t77 16h411zM639 114q14 0 26.5 8t22 20.5t15 27.5t5.5 30t-5.5 30t-15 27.5 t-22 20.5t-26.5 8h-409q-15 0 -27.5 -8t-22 -20.5t-15 -27.5t-5.5 -30t5.5 -30t15 -27.5t22 -20.5t27.5 -8h409z" />
<glyph unicode="P" d="M631 400q27 0 50.5 -10t41 -27.5t27.5 -41t10 -50.5t-10 -50t-27.5 -40.5t-41 -27.5t-50.5 -10h-442v-143h-149v400h591zM603 257q14 0 14 14q0 6 -4 10.5t-10 4.5h-414v-29h414z" />
<glyph unicode="Q" horiz-adv-x="889" d="M649 400q41 0 77.5 -16t63.5 -43t43 -63.5t16 -77.5t-15.5 -76.5t-41.5 -62.5l57 -61h-166h-445q-41 0 -77 16t-63 43t-42.5 63.5t-15.5 77.5t15.5 77.5t42.5 63.5t63 43t77 16h411zM170 200q0 -15 5.5 -30t15 -27.5t22 -20.5t27.5 -8h336l-79 86h165l43 -46q7 11 10 23 t3 23q0 15 -5.5 30t-15 27.5t-22 20.5t-26.5 8h-409q-15 0 -27.5 -8t-22 -20.5t-15 -27.5t-5.5 -30z" />
<glyph unicode="R" d="M760 271q0 -27 -10 -50t-27.5 -40.5t-41 -27.5t-50.5 -10h-4l133 -143h-171l-134 143h-266v-143h-149v400h591q27 0 50.5 -10t41 -27.5t27.5 -41t10 -50.5zM603 257q14 0 14 14q0 6 -4 10.5t-10 4.5h-414v-29h414z" />
<glyph unicode="S" horiz-adv-x="851" d="M683 257q27 0 50 -10t40.5 -27.5t27.5 -40.5t10 -50t-10 -50.5t-27.5 -41t-40.5 -27.5t-50 -10h-624v114h595q6 0 10.5 4.5t4.5 10.5q0 5 -4.5 9.5t-10.5 4.5h-485q-27 0 -50.5 10t-41 27.5t-27.5 40.5t-10 50t10 50.5t27.5 41t41 27.5t50.5 10h624v-114h-596 q-6 0 -10 -4.5t-4 -10.5q0 -14 14 -14h486v0z" />
<glyph unicode="T" horiz-adv-x="854" d="M824 400v-114h-323v-286h-148v286h-323v114h794v0z" />
<glyph unicode="U" horiz-adv-x="849" d="M661 400h148v-201q0 -41 -16 -77.5t-43 -63.5t-63.5 -42.5t-77.5 -15.5h-372q-41 0 -77 16t-62.5 43t-42 63t-15.5 77v201h148v-201q0 -14 5.5 -29t15 -27.5t22 -20.5t26.5 -8h334q14 0 27 8t22.5 20.5t15 27.5t5.5 29v201z" />
<glyph unicode="V" horiz-adv-x="831" d="M416 115l208 285h177l-292 -400h-9h-168h-9l-293 400h177l209 -285v0z" />
<glyph unicode="W" horiz-adv-x="1117" d="M701 115l209 285h177l-293 -400h-9h-168h-9l-49 68l-50 -68h-9h-168h-9l-293 400h177l209 -285l54 74l-154 211h177l66 -90l65 90h177l-154 -211l54 -74v0z" />
<glyph unicode="X" horiz-adv-x="851" d="M771 400l-240 -183l280 -217h-211l-174 136l-175 -136h-211l280 217l-240 183h211l135 -107l134 107h211v0z" />
<glyph unicode="Y" horiz-adv-x="831" d="M601 400h200l-311 -253v-147h-149v139l-311 261h200l183 -151l188 151v0z" />
<glyph unicode="Z" d="M760 400l-352 -286h352v-114h-720l356 286h-356v114h720v0z" />
<glyph unicode="[" horiz-adv-x="320" d="M270 460h-89v-474h89v-114h-220v703h220v-115v0z" />
<glyph unicode="\" horiz-adv-x="524" d="M311 0l-261 485h163l261 -485h-163v0z" />
<glyph unicode="]" horiz-adv-x="320" d="M50 460v115h220v-703h-220v114h89v474h-89v0z" />
<glyph unicode="_" horiz-adv-x="598" d="M50 2v134h498v-134h-498v0z" />
<glyph unicode="a" horiz-adv-x="926" d="M556 400l330 -400h-177l-45 54h-402l-45 -54h-177l330 400h9h168h9zM570 169l-107 129l-107 -129h214z" />
<glyph unicode="b" d="M707 232q24 -17 38.5 -44t14.5 -59q0 -27 -10 -50.5t-27.5 -41t-41 -27.5t-50.5 -10h-591v400h544q27 0 50.5 -10t41 -27.5t27.5 -41t10 -50.5q0 -20 -6 -39zM189 257h367q14 0 14 14q0 6 -4 10.5t-10 4.5h-367v-29zM603 114q6 0 10 4.5t4 10.5q0 5 -4 9.5t-10 4.5h-414 v-29h414z" />
<glyph unicode="c" d="M40 200q0 41 15.5 77.5t42.5 63.5t63.5 43t78.5 16h520v-114h-497q-15 0 -29.5 -6.5t-26 -18t-18.5 -27t-7 -34.5t7 -35t18.5 -27t26 -17.5t29.5 -6.5h497v-114h-520q-42 0 -78.5 15.5t-63.5 42.5t-42.5 63.5t-15.5 78.5z" />
<glyph unicode="d" d="M560 400q41 0 77.5 -16t63.5 -43t43 -63.5t16 -77.5q0 -42 -16 -78.5t-43 -63.5t-63.5 -42.5t-77.5 -15.5h-520v400h520zM537 114q15 0 29.5 6.5t26 17.5t18.5 27t7 35t-7 34.5t-18.5 27t-26 18t-29.5 6.5h-348v-172h348z" />
<glyph unicode="e" d="M760 400v-114h-571v-29h399v-114h-399v-29h571v-114h-720v400h720z" />
<glyph unicode="f" d="M189 286v-29h399v-114h-399v-143h-149v400h720v-114h-571z" />
<glyph unicode="g" d="M40 200q0 41 15.5 77.5t42.5 63.5t63.5 43t78.5 16h520v-114h-497q-15 0 -29.5 -6.5t-26 -18t-18.5 -27t-7 -34.5t7 -35t18.5 -27t26 -17.5t29.5 -6.5h348v29h-248v114h397v-257h-149h-371q-42 0 -78.5 15.5t-63.5 42.5t-42.5 63.5t-15.5 78.5z" />
<glyph unicode="h" d="M611 400h149v-400h-149v143h-422v-143h-149v400h149v-143h422v143z" />
<glyph unicode="i" horiz-adv-x="229" d="M40 400h149v-400h-149v400z" />
<glyph unicode="j" d="M760 400v-200q0 -42 -16 -78.5t-43 -63.5t-63.5 -42.5t-77.5 -15.5h-320q-42 0 -78.5 15.5t-63.5 42.5t-42.5 63.5t-15.5 78.5h130q0 -15 5.5 -30t15 -27.5t22 -20.5t27.5 -8h320q15 0 27.5 8t22 20.5t15 27.5t5.5 30v86h-93v114h223z" />
<glyph unicode="k" horiz-adv-x="851" d="M465 249l346 -249h-211l-256 166l-155 -106v-60h-149v400h149v-201l285 201h212z" />
<glyph unicode="l" horiz-adv-x="763" d="M189 114h534v-114h-683v400h149v-286z" />
<glyph unicode="m" horiz-adv-x="994" d="M954 400v-400h-148v235l-309 -235l-308 235v-235h-149v400h149l308 -230l309 230h148z" />
<glyph unicode="n" d="M611 400h149v-400h-149l-422 263v-263h-149v400h149l422 -263v263z" />
<glyph unicode="o" horiz-adv-x="889" d="M649 400q41 0 77.5 -16t63.5 -43t43 -63.5t16 -77.5q0 -42 -16 -78.5t-43 -63.5t-63.5 -42.5t-77.5 -15.5h-411q-41 0 -77 16t-63 43t-42.5 63.5t-15.5 77.5t15.5 77.5t42.5 63.5t63 43t77 16h411zM649 114q14 0 26.5 8t22 20.5t15 27.5t5.5 30t-5.5 30t-15 27.5 t-22 20.5t-26.5 8h-409q-15 0 -27.5 -8t-22 -20.5t-15 -27.5t-5.5 -30t5.5 -30t15 -27.5t22 -20.5t27.5 -8h409z" />
<glyph unicode="p" d="M631 400q27 0 50.5 -10t41 -27.5t27.5 -41t10 -50.5t-10 -50t-27.5 -40.5t-41 -27.5t-50.5 -10h-442v-143h-149v400h591zM603 257q14 0 14 14q0 6 -4 10.5t-10 4.5h-414v-29h414z" />
<glyph unicode="q" horiz-adv-x="889" d="M649 400q41 0 77.5 -16t63.5 -43t43 -63.5t16 -77.5t-15.5 -76.5t-41.5 -62.5l57 -61h-166h-445q-41 0 -77 16t-63 43t-42.5 63.5t-15.5 77.5t15.5 77.5t42.5 63.5t63 43t77 16h411zM170 200q0 -15 5.5 -30t15 -27.5t22 -20.5t27.5 -8h336l-79 86h165l43 -46q7 11 10 23 t3 23q0 15 -5.5 30t-15 27.5t-22 20.5t-26.5 8h-409q-15 0 -27.5 -8t-22 -20.5t-15 -27.5t-5.5 -30z" />
<glyph unicode="r" d="M760 271q0 -27 -10 -50t-27.5 -40.5t-41 -27.5t-50.5 -10h-4l133 -143h-171l-134 143h-266v-143h-149v400h591q27 0 50.5 -10t41 -27.5t27.5 -41t10 -50.5zM603 257q14 0 14 14q0 6 -4 10.5t-10 4.5h-414v-29h414z" />
<glyph unicode="s" horiz-adv-x="851" d="M683 257q27 0 50 -10t40.5 -27.5t27.5 -40.5t10 -50t-10 -50.5t-27.5 -41t-40.5 -27.5t-50 -10h-624v114h595q6 0 10.5 4.5t4.5 10.5q0 5 -4.5 9.5t-10.5 4.5h-485q-27 0 -50.5 10t-41 27.5t-27.5 40.5t-10 50t10 50.5t27.5 41t41 27.5t50.5 10h624v-114h-596 q-6 0 -10 -4.5t-4 -10.5q0 -14 14 -14h486v0z" />
<glyph unicode="t" horiz-adv-x="874" d="M834 286h-323v-286h-148v286h-323v114h794v-114z" />
<glyph unicode="u" horiz-adv-x="849" d="M661 400h148v-201q0 -41 -16 -77.5t-43 -63.5t-63.5 -42.5t-77.5 -15.5h-372q-41 0 -77 16t-62.5 43t-42 63t-15.5 77v201h148v-201q0 -14 5.5 -29t15 -27.5t22 -20.5t26.5 -8h334q14 0 27 8t22.5 20.5t15 27.5t5.5 29v201z" />
<glyph unicode="v" horiz-adv-x="851" d="M634 400h177l-292 -400h-9h-168h-9l-293 400h177l209 -285z" />
<glyph unicode="w" horiz-adv-x="1117" d="M910 400h177l-293 -400h-9h-168h-9l-49 68l-50 -68h-9h-168h-9l-293 400h177l209 -285l54 74l-154 211h177l66 -90l65 90h177l-154 -211l54 -74z" />
<glyph unicode="x" horiz-adv-x="851" d="M531 217l280 -217h-211l-174 136l-175 -136h-211l280 217l-240 183h211l135 -107l134 107h211z" />
<glyph unicode="y" horiz-adv-x="831" d="M801 400l-311 -253v-147h-149v139l-311 261h200l183 -151l188 151h200z" />
<glyph unicode="z" d="M408 114h352v-114h-720l356 286h-356v114h720z" />
<glyph unicode="{" horiz-adv-x="355" d="M305 567h-17q-14 0 -24 -10t-10 -24v-184q-1 -35 -10.5 -60t-43.5 -33q34 -8 43.5 -33t10.5 -60v-185q0 -14 10 -24t24 -10h17v-114h-34q-31 0 -58 11.5t-47.5 31.5t-32 47t-11.5 58v162q0 44 -16.5 75.5t-55.5 40.5q39 8 55.5 40t16.5 76v161q0 31 11.5 58t32 47 t47.5 32t58 12h34v-115z" />
<glyph unicode="|" horiz-adv-x="248" d="M50 556h148v-656h-148v656v0z" />
<glyph unicode="}" horiz-adv-x="355" d="M50 682h35q30 0 57 -12t47.5 -32t32 -47t11.5 -58v-161q0 -44 16.5 -76t55.5 -40q-39 -9 -55.5 -40.5t-16.5 -75.5v-162q0 -31 -11.5 -58t-32 -47t-47.5 -31.5t-57 -11.5h-35v114h17q14 0 24.5 10t10.5 24v185q1 35 10 60t43 33q-34 8 -43 33t-10 60v184q0 14 -10.5 24 t-24.5 10h-17v115z" />
<glyph unicode="~" horiz-adv-x="598" d="M50 291q53 17 97 17.5t83 -6t75 -17t73.5 -16t79 -2t90.5 23.5v-133q-50 -21 -91 -24t-78.5 2.5t-73.5 16t-75 17t-83 6t-97 -17.5v133z" />
<glyph unicode="&#xa7;" horiz-adv-x="505" d="M437 -75q1 -30 -10 -58.5t-34 -51.5q-22 -22 -49.5 -33t-56 -11t-55.5 11t-49 33l-106 107l81 80l94 -94q10 -10 24 -10t24 10t10 22q2 16 -10 26l-112 113l-92 92q-23 23 -34.5 51.5t-11.5 58.5t11.5 59t34.5 52q8 8 16.5 14.5t17.5 11.5l-19 18q-21 21 -31.5 47 t-11.5 54q-1 29 9.5 57.5t33.5 51.5q22 22 49 32.5t55.5 10.5t56 -10.5t49.5 -32.5l106 -106l-80 -81l-95 94q-10 11 -24 11t-24 -11q-8 -8 -10 -21q-2 -15 10 -27l113 -113l92 -92l6 -7q20 -23 30 -51t9 -57t-12 -56.5t-33 -49.5q-8 -8 -16.5 -14.5t-18.5 -11.5l19 -18 q21 -21 31.5 -47t12.5 -53zM194 284q-11 -11 -11 -25.5t11 -25.5l66 -66q11 -11 25.5 -11t25.5 11t11 25.5t-11 25.5l-67 66q-11 11 -25 11t-25 -11z" />
<glyph unicode="&#xab;" horiz-adv-x="539" d="M266 407l-89 -165l89 -164h-164l-88 164l88 165h164zM506 407l-88 -165l88 -164h-163l-88 164l88 165h163z" />
<glyph unicode="&#xad;" horiz-adv-x="450" d="M50 151v134h350v-134h-350v0z" />
<glyph unicode="&#xb7;" horiz-adv-x="229" d="M189 165h-149v149h149v-149v0z" />
<glyph unicode="&#xbb;" horiz-adv-x="572" d="M281 407h163l88 -165l-88 -164h-163l88 164l-88 165v0zM40 407h163l89 -165l-89 -164h-163l88 164l-88 165v0z" />
<glyph unicode="&#xc4;" horiz-adv-x="926" d="M556 400l330 -400h-177l-45 54h-402l-45 -54h-177l330 400h9h168h9zM356 169h214l-107 129zM430 563v-115h-149v115h149zM645 563v-115h-149v115h149z" />
<glyph unicode="&#xd6;" horiz-adv-x="889" d="M649 400q41 0 77.5 -16t63.5 -43t43 -63.5t16 -77.5q0 -42 -16 -78.5t-43 -63.5t-63.5 -42.5t-77.5 -15.5h-411q-41 0 -77 16t-63 43t-42.5 63.5t-15.5 77.5t15.5 77.5t42.5 63.5t63 43t77 16h411zM649 114q14 0 26.5 8t22 20.5t15 27.5t5.5 30t-5.5 30t-15 27.5 t-22 20.5t-26.5 8h-409q-15 0 -27.5 -8t-22 -20.5t-15 -27.5t-5.5 -30t5.5 -30t15 -27.5t22 -20.5t27.5 -8h409zM411 448h-148v115h148v-115zM626 448h-149v115h149v-115z" />
<glyph unicode="&#xdc;" horiz-adv-x="851" d="M811 401v-201q0 -42 -15.5 -78.5t-42.5 -63.5t-63.5 -42.5t-78.5 -15.5h-373q-41 0 -77 16t-63 43t-42.5 63.5t-15.5 77.5v201h149v-201q0 -15 5.5 -30t15 -27.5t22 -20.5t26.5 -8h335q15 0 27.5 8t22 20.5t15 27.5t5.5 30v201h148zM393 448h-149v115h149v-115zM607 448 h-148v115h148v-115z" />
<glyph unicode="&#xdf;" horiz-adv-x="749" d="M577 257q25 -1 47.5 -11.5t39 -28t26 -40.5t9.5 -48q0 -27 -10 -50.5t-27.5 -41t-40.5 -27.5t-50 -10h-211q-27 0 -50.5 10t-41 27.5t-27.5 41t-10 50.5v128h143v-128q0 -6 4 -10.5t10 -4.5h154q6 0 10 4.5t4 10.5q0 5 -4 9.5t-10 4.5h-132v114h11q14 0 14 14 q0 6 -4 10.5t-10 4.5h-208q-6 0 -10 -4.5t-4 -10.5v-271h-149v271q0 27 10 50.5t27.5 41t41 27.5t50.5 10h270q27 0 50.5 -10t41 -27.5t27.5 -41t10 -50.5q0 -4 -0.5 -7t-0.5 -7z" />
<glyph unicode="&#x2000;" horiz-adv-x="341" />
<glyph unicode="&#x2001;" horiz-adv-x="682" />
<glyph unicode="&#x2002;" horiz-adv-x="341" />
<glyph unicode="&#x2003;" horiz-adv-x="682" />
<glyph unicode="&#x2004;" horiz-adv-x="227" />
<glyph unicode="&#x2005;" horiz-adv-x="170" />
<glyph unicode="&#x2006;" horiz-adv-x="113" />
<glyph unicode="&#x2007;" horiz-adv-x="113" />
<glyph unicode="&#x2008;" horiz-adv-x="85" />
<glyph unicode="&#x2009;" horiz-adv-x="136" />
<glyph unicode="&#x200a;" horiz-adv-x="37" />
<glyph unicode="&#x2010;" horiz-adv-x="450" d="M50 151v134h350v-134h-350v0z" />
<glyph unicode="&#x2011;" horiz-adv-x="450" d="M50 151v134h350v-134h-350v0z" />
<glyph unicode="&#x2012;" horiz-adv-x="450" d="M50 151v134h350v-134h-350v0z" />
<glyph unicode="&#x2013;" horiz-adv-x="450" d="M50 151v134h350v-134h-350v0z" />
<glyph unicode="&#x2014;" horiz-adv-x="594" d="M50 149v133h494v-133h-494v0z" />
<glyph unicode="&#x2018;" horiz-adv-x="248" d="M198 492h-148v114l49 76h86l-49 -76h62v-114v0z" />
<glyph unicode="&#x2019;" horiz-adv-x="248" d="M50 682h148v-114l-49 -76h-86l50 76h-63v114v0z" />
<glyph unicode="&#x201c;" horiz-adv-x="461" d="M411 606v-114h-148v114l49 76h86l-50 -76h63zM198 492h-148v114l49 76h86l-49 -76h62v-114z" />
<glyph unicode="&#x201d;" horiz-adv-x="461" d="M50 568v114h148v-114l-49 -76h-86l50 76h-63zM263 682h148v-114l-49 -76h-86l49 76h-62v114z" />
<glyph unicode="&#x2022;" horiz-adv-x="305" d="M255 240q0 -21 -8 -40t-22 -33t-33 -22t-40 -8t-39.5 8t-32.5 22t-22 33t-8 40t8 39.5t22 32.5t32.5 22t39.5 8t40 -8t33 -22t22 -32.5t8 -39.5z" />
<glyph unicode="&#x202f;" horiz-adv-x="136" />
<glyph unicode="&#x2039;" horiz-adv-x="542" d="M492 484l-242 -242l242 -242h-200l-242 242l242 242h200v0z" />
<glyph unicode="&#x203a;" horiz-adv-x="542" d="M50 484h200l242 -242l-242 -242h-200l242 242l-242 242v0z" />
<glyph unicode="&#x205f;" horiz-adv-x="170" />
<glyph unicode="&#x20ac;" horiz-adv-x="806" d="M404 114h352l-115 -114h-237q-38 0 -73 11t-64 31.5t-51.5 48.5t-35.5 62h-130l74 77h40v10v10h-114l74 77h56q13 33 35.5 61t51.5 48.5t64 31.5t73 11h352l-115 -114h-237v1q-21 0 -39 -11t-32 -28h293l-74 -77h-251v-10v-10h325l-74 -77h-219q14 -17 32 -28.5t39 -11.5 v1z" />
<glyph unicode="&#x25fc;" horiz-adv-x="400" d="M0 400h400v-400h-400v400z" />
</font>
</defs>
</svg>
